<?xml version="1.0" standalone="no"?>
<!DOCTYPE svg PUBLIC "-//W3C//DTD SVG 20010904//EN"
 "http://www.w3.org/TR/2001/REC-SVG-20010904/DTD/svg10.dtd">
<svg version="1.0" xmlns="http://www.w3.org/2000/svg"
 width="659.000000pt" height="659.000000pt" viewBox="0 0 659.000000 659.000000"
 preserveAspectRatio="xMidYMid meet">
<metadata>
Created by potrace 1.11, written by Peter Selinger 2001-2013
</metadata>
<g transform="translate(0.000000,659.000000) scale(0.100000,-0.100000)"
fill="#000000" stroke="none">
<path d="M2043 5820 c-13 -5 -23 -12 -23 -14 0 -3 6 -3 13 0 14 5 17 -29 4
-42 -10 -11 -8 -24 4 -24 5 0 8 4 4 9 -3 5 -1 12 4 16 6 3 8 12 4 20 -3 8 -1
15 4 15 11 0 11 -45 0 -56 -9 -10 -9 -26 1 -21 4 3 7 -19 8 -49 0 -30 -3 -54
-7 -54 -4 0 -6 9 -4 20 2 12 -2 23 -11 27 -12 4 -12 7 3 19 12 9 14 13 5 14
-7 0 -11 4 -7 9 3 5 1 12 -4 15 -5 4 -8 -2 -6 -11 1 -10 -5 -26 -13 -36 -9
-10 -12 -18 -7 -17 34 7 42 -13 17 -42 -9 -12 -9 -15 3 -15 8 0 11 5 8 10 -3
6 -1 7 6 3 6 -4 9 -12 6 -17 -4 -5 4 -13 17 -18 18 -8 19 -10 5 -10 -10 -1
-15 -6 -12 -11 4 -6 2 -16 -3 -23 -11 -13 -12 -17 -12 -43 0 -8 -4 -13 -9 -9
-5 3 -12 1 -15 -4 -4 -5 -2 -12 4 -16 6 -4 8 -10 5 -15 -3 -5 -1 -11 5 -15 5
-3 10 -15 10 -26 0 -10 6 -19 13 -19 8 0 8 -3 2 -8 -18 -12 -11 -37 10 -35 17
1 18 0 5 -10 -8 -7 -16 -21 -16 -32 -2 -32 -16 -65 -24 -60 -4 3 -14 -3 -21
-13 -13 -16 -12 -16 4 -3 17 13 18 13 15 -1 -1 -9 2 -17 7 -17 6 0 9 7 7 15
-2 8 3 14 9 14 7 0 9 -3 6 -7 -4 -3 -2 -12 4 -20 14 -16 -4 -43 -30 -44 -11 0
-10 -3 6 -9 12 -5 20 -15 18 -22 -9 -39 -18 -57 -25 -53 -5 3 -11 1 -14 -4 -4
-5 -2 -12 3 -15 5 -4 8 -20 6 -36 -2 -17 1 -30 7 -30 5 0 8 -7 5 -15 -4 -8 -2
-17 2 -19 5 -3 7 5 6 17 -1 12 -3 22 -5 22 -1 0 -3 10 -4 22 -1 12 1 20 5 17
4 -2 6 5 4 16 -2 11 0 20 6 20 10 0 6 -41 -6 -60 -3 -6 1 -13 9 -16 9 -3 13
-11 9 -18 -4 -6 -8 -13 -9 -16 -11 -37 -18 -49 -24 -45 -4 3 -14 -3 -21 -13
-13 -16 -12 -16 4 -3 17 13 18 13 15 -1 -1 -9 2 -17 7 -17 6 0 9 7 7 15 -2 8
3 14 9 14 7 0 9 -3 6 -7 -4 -3 -2 -12 4 -20 14 -16 -4 -43 -30 -44 -11 0 -10
-3 6 -9 12 -5 20 -15 18 -22 -9 -39 -18 -57 -25 -53 -5 3 -11 1 -14 -4 -4 -5
-2 -12 3 -15 5 -4 8 -19 6 -35 -3 -19 1 -31 11 -35 10 -4 13 -2 7 6 -10 17
-11 48 -2 42 4 -2 6 5 4 16 -2 11 0 20 6 20 10 0 6 -41 -6 -60 -3 -6 1 -13 9
-16 9 -3 13 -10 10 -16 -3 -5 -12 -7 -19 -4 -8 3 -19 -1 -25 -9 -10 -12 -8
-13 9 -10 12 2 19 0 16 -6 -4 -5 4 -13 17 -18 18 -8 19 -10 5 -10 -10 -1 -15
-6 -12 -11 4 -6 2 -16 -3 -23 -11 -13 -12 -17 -12 -43 0 -8 -4 -13 -9 -9 -5 3
-12 1 -15 -4 -4 -5 -2 -12 4 -16 6 -4 8 -10 5 -15 -3 -5 -1 -11 5 -15 5 -3 10
-15 10 -26 0 -10 6 -19 13 -19 8 0 8 -3 2 -8 -18 -12 -11 -37 10 -35 17 1 18
0 5 -10 -10 -8 -15 -29 -15 -59 0 -25 -3 -44 -7 -42 -5 3 -5 10 -2 16 4 7 2 8
-4 4 -8 -4 -9 -14 -4 -24 5 -9 8 -24 7 -32 -1 -8 3 -20 7 -27 5 -6 4 -14 -3
-18 -8 -6 -8 -9 1 -15 9 -6 6 -10 -9 -15 -19 -6 -20 -9 -9 -22 11 -14 10 -15
-12 -9 -25 6 -25 6 -2 -5 12 -7 22 -16 22 -21 0 -5 -5 -6 -12 -2 -7 5 -8 3 -2
-7 14 -23 15 -52 2 -61 -8 -5 -9 -8 -2 -8 17 0 37 27 25 34 -17 11 0 56 22 56
7 0 5 -5 -5 -10 -19 -12 -17 -47 3 -42 8 2 6 -5 -6 -18 -16 -18 -17 -23 -5
-31 12 -7 9 -8 -9 -7 -16 2 -25 -3 -26 -14 -2 -10 0 -18 4 -18 4 0 7 -10 8
-22 2 -22 1 -22 -12 -4 -13 18 -14 18 -12 -2 1 -15 7 -19 25 -16 15 3 21 1 17
-6 -3 -5 -15 -10 -26 -10 -10 0 -19 -4 -19 -10 0 -5 6 -7 14 -4 14 5 43 -32
33 -43 -3 -2 -8 5 -12 16 -3 12 -11 21 -16 21 -13 0 -11 -13 4 -30 9 -11 8
-11 -7 0 -17 13 -19 13 -14 0 9 -23 -27 -23 -47 0 -10 11 -22 17 -26 14 -5 -3
-9 0 -9 5 0 6 6 11 13 11 7 0 13 9 14 20 1 11 -3 20 -8 20 -6 0 -8 -4 -4 -9 9
-16 -9 -20 -28 -6 -15 10 -15 14 -3 18 9 4 13 14 9 29 -4 18 -3 20 6 8 9 -13
11 -13 11 0 0 8 -10 21 -22 29 -21 13 -22 13 -9 -2 7 -10 9 -17 3 -17 -18 0
-20 24 -3 44 9 11 11 16 5 13 -7 -4 -17 6 -24 23 -13 30 -21 36 -34 23 -11
-11 -36 -12 -36 -1 0 6 7 8 15 4 15 -5 21 11 16 44 -1 8 -2 25 -2 38 1 12 -4
22 -10 22 -5 0 -7 6 -3 13 5 7 0 6 -11 -3 -17 -14 -18 -13 -12 3 5 13 3 17 -5
14 -7 -2 -12 -13 -10 -25 2 -11 -1 -23 -6 -25 -4 -3 -7 7 -6 22 1 15 -5 35
-12 46 -14 18 -20 9 -14 -20 1 -5 -2 -7 -6 -3 -11 11 -14 58 -4 58 4 0 7 6 6
14 -3 23 -28 47 -42 42 -8 -3 -11 0 -8 8 3 7 11 13 19 13 8 0 11 -5 8 -10 -4
-6 -1 -7 7 -2 9 6 11 4 5 -5 -5 -9 -4 -11 4 -6 8 6 9 12 2 20 -6 7 -8 16 -4
20 4 4 0 4 -10 0 -24 -9 -35 25 -14 41 10 7 17 16 17 21 0 4 -5 3 -12 -4 -15
-15 -49 13 -42 33 8 20 -24 26 -35 7 -6 -9 -11 -12 -11 -5 0 6 5 15 10 18 6 4
8 10 5 15 -3 5 3 7 15 5 11 -2 22 0 25 5 3 5 -3 7 -13 5 -10 -1 -29 4 -42 12
-14 8 -17 12 -7 9 14 -5 16 -2 8 12 -6 11 -6 25 0 37 10 19 10 19 -5 1 -8 -10
-13 -23 -9 -29 3 -6 1 -7 -6 -3 -6 4 -9 11 -6 16 3 5 1 11 -5 15 -5 3 -10 13
-10 21 0 8 5 12 10 9 6 -4 7 -11 4 -17 -4 -7 -2 -8 5 -4 13 8 -46 86 -66 86
-7 0 -13 6 -13 13 0 8 -4 7 -10 -3 -6 -9 -10 -10 -10 -3 0 6 5 15 11 19 8 5 8
9 -1 14 -6 4 -13 16 -14 26 -2 10 -9 18 -15 17 -17 -4 -13 14 5 21 8 3 12 2 9
-3 -3 -5 -1 -12 4 -15 5 -4 12 -2 15 3 4 5 2 12 -4 16 -6 4 -8 11 -5 16 4 5
-1 12 -9 15 -9 3 -16 12 -16 20 0 8 -4 14 -8 14 -17 0 -8 -30 10 -36 10 -3 16
-10 12 -15 -4 -6 -13 -4 -23 5 -10 9 -21 13 -25 9 -4 -4 -4 0 0 10 3 9 1 17
-4 17 -6 0 -13 -8 -15 -17 -4 -17 -5 -17 -6 0 0 9 -6 17 -12 17 -5 0 -7 -5 -3
-12 4 -7 3 -8 -5 -4 -14 9 -4 29 12 23 12 -4 67 19 67 29 0 3 -5 2 -11 -2 -25
-15 -72 -14 -84 3 -9 13 -14 13 -20 3 -5 -8 -4 -11 2 -7 15 9 23 -17 11 -34
-8 -11 -9 -10 -4 4 7 21 -9 23 -18 2 -3 -9 -12 -12 -22 -8 -12 4 -15 3 -10 -5
4 -7 2 -12 -4 -12 -7 0 -10 6 -7 13 2 6 11 12 19 11 7 -1 15 7 15 17 2 18 1
18 -19 -1 -12 -11 -25 -17 -31 -13 -5 3 -3 10 4 15 12 8 12 9 0 6 -8 -2 -16
-15 -18 -28 -2 -13 -10 -31 -18 -40 -8 -9 -12 -19 -9 -23 4 -4 -3 -5 -15 -2
-14 2 -26 -3 -34 -16 -6 -10 -15 -19 -20 -19 -4 0 -5 5 -2 10 4 7 -3 9 -20 6
-22 -4 -26 -2 -21 12 4 10 -2 7 -15 -8 -11 -14 -18 -20 -15 -13 4 6 2 15 -4
18 -6 4 -10 3 -9 -2 3 -18 -2 -33 -11 -33 -5 0 -7 8 -3 18 3 9 3 14 -1 11 -4
-4 -8 -16 -11 -28 -4 -21 -3 -21 28 -4 37 20 57 22 57 8 0 -5 -4 -10 -9 -10
-5 0 -12 -3 -16 -7 -4 -4 -14 -4 -22 -1 -13 5 -14 2 -4 -18 12 -23 12 -23 -4
-4 -14 17 -17 18 -25 5 -7 -11 -10 -12 -10 -2 0 9 -7 11 -21 7 -15 -5 -19 -4
-15 4 4 6 2 11 -4 11 -7 0 -9 -7 -6 -16 3 -9 6 -18 6 -21 0 -3 7 0 15 7 9 7
15 8 15 2 0 -5 -7 -13 -16 -16 -8 -3 -12 -11 -8 -17 4 -8 3 -9 -5 -5 -6 4 -19
2 -28 -6 -9 -7 -14 -8 -10 -2 4 7 1 17 -6 22 -10 9 -13 5 -13 -16 1 -23 -3
-27 -24 -24 -19 2 -22 0 -12 -10 6 -6 12 -17 12 -22 0 -6 -5 -4 -10 4 -8 13
-11 11 -16 -7 -4 -13 -10 -23 -16 -23 -5 0 -4 8 1 19 6 10 7 22 3 26 -4 5 -2
5 5 2 7 -5 9 0 5 15 -5 21 -5 21 -15 -3 -6 -13 -9 -30 -8 -38 1 -8 -2 -10 -10
-5 -8 5 -10 3 -4 -6 6 -10 3 -12 -11 -7 -18 7 -18 6 -2 -6 10 -8 14 -18 10
-23 -4 -4 2 -2 12 6 18 14 18 13 11 -10 -6 -20 -5 -23 6 -12 7 6 18 12 23 12
7 0 8 -3 1 -8 -5 -4 -17 -16 -25 -26 -12 -16 -12 -18 -1 -11 11 6 13 4 8 -8
-3 -9 -2 -19 4 -23 17 -10 22 3 10 25 -8 13 -8 22 -1 26 6 4 10 3 9 -2 -3 -20
2 -34 11 -28 6 4 7 -2 1 -17 -5 -13 -13 -22 -18 -21 -5 1 -9 -7 -9 -18 0 -19
1 -19 13 -3 7 10 16 15 19 11 4 -4 1 -13 -6 -22 -7 -8 -8 -15 -2 -15 13 0 23
26 16 44 -6 16 19 16 33 1 4 -4 2 -5 -4 -1 -9 5 -13 -1 -13 -18 0 -14 -7 -29
-17 -34 -14 -9 -14 -10 5 -16 14 -5 19 -12 15 -24 -4 -11 2 -8 16 8 19 21 22
22 16 5 -4 -11 -9 -27 -12 -35 -2 -8 5 -4 18 10 12 14 20 18 17 10 -2 -8 5
-23 16 -33 21 -18 21 -18 -5 -2 -23 14 -27 14 -32 1 -4 -11 -1 -13 11 -9 15 6
15 5 3 -11 -13 -16 -13 -18 0 -16 36 5 42 0 20 -19 -17 -15 -19 -20 -7 -24 9
-4 18 -1 22 5 5 7 2 8 -6 3 -9 -6 -11 -4 -5 4 5 9 10 10 18 2 7 -7 6 -15 -3
-26 -11 -13 -10 -18 6 -30 17 -12 20 -11 32 8 12 21 12 21 10 2 -2 -11 -11
-26 -20 -33 -10 -7 -18 -19 -18 -25 0 -8 3 -9 8 -1 4 6 16 14 27 17 20 7 20 7
1 -8 -15 -11 -16 -15 -5 -15 8 0 20 5 27 12 7 7 12 9 12 5 0 -4 -9 -16 -20
-27 -11 -11 -20 -25 -20 -32 0 -6 6 -4 13 6 11 16 17 17 33 7 17 -11 16 -11
-6 -5 -14 3 -22 3 -18 -1 4 -5 4 -13 -2 -19 -5 -7 -5 -17 0 -26 9 -13 10 -13
11 0 1 8 1 18 1 21 -1 3 5 6 13 6 10 0 11 -5 5 -17 -5 -10 -6 -20 -3 -24 3 -3
1 -6 -5 -6 -7 0 -12 -4 -12 -8 0 -5 7 -9 15 -9 8 0 12 4 9 9 -3 4 0 8 5 8 6 0
11 -5 11 -11 0 -5 4 -7 10 -4 6 3 7 -1 4 -9 -3 -9 -11 -13 -17 -9 -6 4 -7 1
-3 -6 6 -9 13 -8 27 5 11 9 22 14 26 11 3 -4 1 -7 -6 -7 -7 0 -9 -5 -6 -10 4
-6 12 -7 18 -3 9 5 9 3 1 -8 -6 -8 -11 -25 -12 -37 0 -13 -9 -30 -19 -38 -12
-9 -13 -12 -3 -9 23 7 42 -10 42 -39 1 -31 11 -33 38 -6 l20 20 -4 -26 c-5
-28 -16 -45 -16 -25 0 7 -5 9 -11 5 -8 -4 -6 -10 6 -17 14 -7 22 -5 33 9 14
18 14 18 8 0 -5 -14 -2 -17 9 -12 10 3 13 2 10 -5 -4 -6 -13 -8 -21 -5 -8 3
-14 1 -14 -5 0 -6 -10 -8 -22 -5 l-23 6 23 -11 c12 -7 23 -16 23 -21 3 -19 7
-49 8 -65 1 -15 3 -15 17 3 11 14 14 15 11 3 -3 -9 4 -29 15 -45 11 -16 18
-22 15 -14 -3 10 2 16 12 16 10 0 18 -6 18 -13 0 -7 -3 -10 -7 -8 -3 2 -12 -5
-19 -17 -10 -16 -10 -19 1 -12 7 5 22 9 33 11 11 1 14 -1 8 -3 -7 -3 -13 -10
-13 -15 0 -6 5 -7 10 -4 6 3 10 2 10 -3 0 -5 -10 -14 -22 -20 l-23 -11 23 -7
c25 -7 27 -15 10 -32 -9 -9 -8 -13 5 -17 10 -4 13 -13 10 -23 -4 -9 -3 -14 1
-11 4 4 8 16 11 27 3 16 0 19 -13 15 -15 -6 -15 -5 -2 11 13 16 12 20 -5 33
-18 14 -18 15 -2 9 10 -3 21 -6 23 -6 2 0 4 -9 4 -20 0 -11 6 -20 13 -20 7 0
8 -3 2 -8 -14 -10 -17 -32 -5 -32 5 0 14 8 20 18 11 16 11 16 6 -2 -4 -13 -2
-17 7 -13 8 3 14 -1 14 -8 0 -10 -5 -11 -19 -4 -14 7 -18 6 -18 -5 0 -8 5 -18
12 -22 7 -5 8 -3 3 7 -7 11 -6 12 7 2 8 -7 18 -10 21 -6 4 3 7 2 7 -4 0 -6 -7
-14 -16 -17 -8 -3 -12 -2 -9 4 3 6 4 10 1 10 -3 0 -10 -9 -16 -19 -7 -14 -7
-22 2 -27 7 -4 8 -3 4 4 -7 12 11 17 43 13 8 -2 10 2 5 10 -5 8 -3 10 6 4 10
-6 9 -11 -5 -22 -11 -7 -15 -13 -11 -13 5 0 2 -7 -5 -16 -12 -15 -11 -16 7
-10 15 5 24 2 28 -9 3 -9 2 -13 -4 -10 -6 3 -10 -1 -10 -9 0 -9 -6 -16 -12
-16 -7 0 -5 -5 5 -11 9 -6 15 -15 12 -20 -4 -5 -11 -6 -17 -3 -7 5 -8 2 -3 -5
5 -9 10 -10 18 -2 6 6 18 11 27 11 13 -1 13 -2 0 -13 -24 -19 -22 -36 3 -29
12 3 16 7 9 10 -9 3 -8 7 2 18 19 19 25 18 22 -3 -2 -10 6 -30 18 -46 19 -26
19 -28 3 -42 -9 -8 -12 -10 -7 -3 13 15 13 31 0 23 -6 -4 -7 1 -3 12 3 10 3
15 -1 11 -11 -10 -15 -58 -4 -64 4 -3 6 -9 4 -13 -3 -4 3 -17 13 -27 9 -11 15
-26 13 -34 -3 -8 -2 -12 2 -9 4 4 9 16 11 28 3 15 0 19 -8 14 -7 -4 -6 0 2 10
7 9 14 17 15 17 1 0 2 -18 2 -40 0 -22 -4 -40 -9 -40 -11 0 28 -36 46 -43 8
-3 5 -11 -8 -22 -21 -17 0 -10 24 9 20 16 45 17 32 2 -6 -7 -7 -17 -3 -22 4
-4 0 -3 -8 3 -13 10 -18 8 -28 -8 -10 -15 -10 -19 0 -17 7 2 12 -2 13 -9 0 -6
4 -15 9 -20 5 -5 6 -3 2 5 -4 6 -2 12 5 12 6 0 9 -8 6 -20 -3 -11 0 -23 5 -27
6 -3 8 -2 5 4 -3 5 0 10 8 10 8 0 14 -3 13 -6 -2 -21 4 -22 18 -5 15 18 15 18
5 -3 -8 -15 -8 -22 1 -25 8 -3 8 -9 1 -22 -7 -13 -13 -15 -17 -7 -4 6 -2 11 5
11 8 0 8 4 -1 15 -7 8 -17 12 -23 8 -5 -3 -7 -2 -4 3 3 5 -3 10 -14 10 -10 0
-19 -4 -19 -8 0 -8 24 -12 44 -9 5 1 6 -5 3 -13 -7 -18 18 -42 28 -26 3 5 11
10 17 10 6 0 0 -10 -13 -22 -15 -13 -18 -19 -7 -15 21 8 42 -15 27 -30 -8 -8
-7 -13 2 -18 8 -5 10 -4 5 3 -4 7 -2 12 4 12 7 0 9 -7 6 -16 -3 -9 -6 -18 -6
-21 0 -3 -7 0 -15 7 -10 9 -15 9 -15 1 0 -6 5 -11 11 -11 6 0 8 -7 5 -16 -3
-8 -2 -12 3 -9 5 3 12 1 16 -5 3 -5 11 -10 18 -10 6 0 2 6 -9 14 -13 10 -16
18 -8 25 7 8 16 7 30 -5 18 -15 18 -15 -3 -4 -13 6 -23 7 -23 2 0 -5 10 -14
23 -20 12 -6 16 -11 10 -11 -7 -1 -13 -6 -13 -12 0 -6 9 -8 23 -3 21 6 21 6
-3 -16 -18 -16 -20 -20 -7 -16 11 4 16 2 12 -5 -4 -5 -16 -7 -28 -3 -19 6 -20
5 -9 -9 10 -12 10 -17 1 -23 -7 -4 -9 -3 -5 4 10 16 -11 24 -34 12 -16 -9 -18
-8 -14 5 8 20 -6 19 -23 -3 -13 -15 -13 -15 -3 6 13 26 3 29 -16 5 -12 -17
-12 -17 -11 2 1 11 -3 19 -8 18 -6 -1 -12 7 -12 18 -1 10 2 19 8 19 5 0 9 5 9
11 0 5 -5 7 -10 4 -6 -3 -10 1 -10 9 0 9 -5 16 -10 16 -7 0 -7 -6 0 -20 8 -14
8 -20 0 -20 -6 0 -9 -4 -6 -8 3 -5 -1 -9 -9 -9 -8 0 -13 2 -10 5 2 2 -3 11
-11 19 -11 12 -12 18 -3 29 7 8 9 17 6 20 -3 3 -10 -3 -16 -15 -6 -11 -20 -19
-30 -18 -11 0 -17 5 -15 9 3 4 0 8 -5 8 -6 0 -11 -6 -11 -12 0 -7 -5 -5 -11 5
-6 10 -8 21 -5 24 3 4 6 1 6 -7 0 -9 3 -10 14 -1 11 9 15 8 20 -4 6 -18 26
-11 25 8 0 9 -2 8 -6 -1 -3 -8 -11 -5 -25 10 -11 13 -16 17 -12 9 5 -10 3 -13
-8 -8 -9 3 -21 0 -28 -6 -10 -9 -11 -9 -6 0 3 6 2 14 -3 17 -5 4 -12 -1 -14
-9 -4 -11 -4 -10 -3 2 1 13 9 17 26 15 20 -2 22 0 10 8 -20 13 -26 13 -44 -6
-9 -9 -16 -11 -16 -4 0 6 -5 8 -10 5 -6 -4 -9 -1 -8 7 2 8 -6 12 -22 11 -22
-2 -23 -1 -7 8 13 8 22 7 33 -1 7 -7 14 -8 14 -3 0 5 -12 15 -26 21 -18 9 -23
9 -18 1 4 -7 1 -10 -7 -7 -8 3 -13 10 -12 15 1 5 -4 10 -12 10 -11 0 -12 -5
-3 -20 10 -19 10 -19 -16 -1 -14 11 -26 24 -26 31 0 6 -9 15 -21 18 -16 5 -18
9 -8 21 10 12 9 13 -5 8 -22 -8 -20 -19 6 -36 13 -9 18 -19 14 -27 -6 -8 -11
-9 -20 -2 -7 6 -17 7 -21 3 -5 -4 -5 -2 -2 5 4 6 1 14 -5 16 -10 4 -10 6 -1 6
14 1 6 31 -8 31 -5 0 -8 -3 -8 -7 3 -20 -2 -33 -12 -33 -8 0 -8 4 0 13 8 10 7
17 -2 27 -10 10 -9 11 3 5 12 -7 13 -6 3 6 -10 12 -10 18 0 29 10 12 9 12 -4
2 -8 -6 -25 -10 -38 -7 -12 2 -19 0 -16 -6 4 -5 1 -9 -4 -9 -10 0 -15 14 -12
33 1 5 -3 6 -8 3 -5 -4 -13 -1 -16 4 -5 8 -13 6 -26 -6 -23 -21 -25 -8 -3 17
12 14 13 18 2 25 -7 4 -10 4 -6 -1 4 -4 1 -14 -7 -21 -18 -19 -29 -18 -21 2 3
8 2 13 -3 9 -5 -3 -11 1 -14 7 -3 10 -7 10 -20 -1 -10 -8 -17 -9 -17 -3 0 6 5
14 10 17 6 4 8 11 4 16 -4 6 -10 6 -18 0 -7 -6 -17 -7 -21 -3 -5 4 -5 1 -1 -6
4 -7 12 -10 17 -7 5 3 6 -1 3 -10 -6 -14 -9 -13 -21 5 -13 18 -17 19 -31 8
-12 -10 -14 -10 -8 0 4 7 2 12 -6 12 -7 1 -3 9 11 20 13 11 18 20 13 20 -6 0
-14 -5 -17 -10 -3 -5 -11 -10 -16 -10 -6 0 -7 5 -4 10 3 6 1 10 -5 10 -6 0
-10 -7 -8 -16 2 -10 -3 -19 -9 -21 -7 -3 -13 0 -13 7 0 6 5 8 12 4 7 -4 8 -3
4 4 -4 6 -13 9 -21 5 -8 -3 -15 0 -15 6 0 6 6 11 14 11 8 0 17 7 20 16 4 11
-2 9 -25 -7 -30 -21 -31 -21 -21 -2 12 21 7 33 -12 33 -7 0 -7 -3 1 -8 8 -5 8
-12 -3 -26 -8 -11 -14 -14 -14 -7 0 7 -4 10 -8 7 -4 -2 -9 5 -9 16 -2 20 -1
20 13 2 15 -18 15 -18 5 1 -6 11 -15 27 -22 35 -9 13 -10 13 -6 -2 3 -9 0 -22
-8 -28 -11 -9 -16 -7 -23 7 -6 10 -20 19 -31 20 -12 1 -19 -3 -15 -8 3 -6 -3
-5 -15 3 -12 7 -21 16 -21 20 0 10 -27 10 -33 1 -2 -5 -3 -3 -1 3 1 6 -3 17
-9 24 -7 7 4 4 23 -6 19 -10 39 -17 43 -16 5 1 5 -3 1 -9 -4 -8 -3 -9 4 -5 9
5 8 12 0 26 -7 11 -15 15 -18 11 -3 -5 -20 -1 -37 9 -18 9 -29 20 -26 24 4 4
-1 4 -11 0 -15 -6 -17 -4 -11 7 6 11 5 11 -5 2 -7 -6 -19 -9 -28 -6 -8 4 -13
2 -9 -3 7 -12 -53 -12 -72 0 -9 6 -12 5 -7 -2 3 -6 2 -13 -4 -17 -6 -4 -8 -11
-5 -16 4 -5 1 -9 -4 -9 -6 0 -11 -8 -11 -17 1 -17 1 -17 11 0 13 22 28 22 26
-1 -1 -22 -34 -23 -48 -1 -8 10 -8 7 -4 -10 5 -16 4 -21 -4 -17 -7 5 -9 1 -5
-8 3 -9 11 -13 18 -9 17 11 37 12 30 2 -3 -5 -9 -7 -14 -4 -4 3 -18 -7 -30
-22 -12 -16 -19 -23 -16 -17 3 7 -1 15 -9 18 -13 5 -14 2 -4 -17 7 -12 19 -28
28 -35 14 -11 13 -12 -6 -3 -15 8 -24 8 -28 1 -4 -6 -11 -7 -17 -4 -6 4 -8 2
-4 -4 3 -5 3 -12 -1 -15 -5 -2 -3 -3 2 -2 6 2 16 -3 22 -11 10 -10 9 -14 -6
-19 -9 -3 -18 -12 -19 -20 -1 -8 -3 -22 -4 -30 -1 -8 -4 -13 -6 -10 -3 3 -11
0 -19 -7 -10 -8 -17 -8 -25 0 -7 7 -17 12 -23 12 -5 0 -2 -5 8 -11 9 -6 15
-15 12 -20 -4 -5 -9 -7 -13 -5 -4 2 -8 -7 -8 -20 -2 -25 10 -32 22 -12 5 7 3
8 -5 3 -10 -6 -11 -3 -1 15 6 12 14 19 17 16 4 -3 13 0 22 7 14 11 14 10 2 -5
-7 -10 -18 -15 -23 -12 -12 8 -6 -29 7 -38 6 -5 5 -8 -3 -8 -7 0 -10 -5 -7
-10 9 -14 -24 -25 -37 -12 -8 8 -4 9 13 5 14 -3 21 -2 16 3 -5 5 -12 9 -15 9
-4 0 -12 4 -19 8 -7 4 -10 1 -8 -10 3 -21 -24 -55 -37 -47 -5 3 -3 13 4 22 9
12 6 11 -10 -2 -22 -19 -30 -32 -13 -22 5 3 11 -1 15 -9 3 -8 1 -17 -4 -20 -4
-3 -10 1 -13 7 -2 7 -4 -1 -3 -19 0 -17 4 -29 7 -27 4 2 13 -4 20 -13 12 -14
11 -15 -11 -9 -20 6 -22 5 -8 -4 10 -6 15 -18 12 -28 -2 -9 1 -7 7 5 12 23 56
37 66 20 3 -6 1 -7 -5 -3 -7 4 -12 2 -12 -3 0 -15 27 -14 33 2 4 9 6 9 6 0 1
-6 -3 -14 -9 -18 -12 -7 30 -50 49 -50 8 0 15 8 17 18 3 22 -12 22 -20 1 -4
-9 -9 -14 -12 -11 -3 3 1 15 9 27 12 17 16 18 26 7 6 -8 8 -16 5 -19 -2 -3 3
-8 12 -12 11 -4 15 -2 11 8 -6 15 17 16 30 1 4 -4 2 -5 -4 -1 -13 7 -17 -4
-13 -34 1 -11 -2 -10 -13 4 -11 15 -16 16 -22 6 -5 -8 -4 -11 2 -7 6 4 13 0
17 -8 3 -8 12 -12 20 -9 11 4 14 0 11 -15 -2 -12 0 -19 6 -16 5 4 7 11 4 16
-4 5 -1 9 5 9 7 0 5 7 -4 16 -20 20 -20 20 6 21 13 0 17 -1 10 -4 -10 -4 -9
-9 4 -24 20 -22 42 -26 25 -5 -8 10 -9 16 -1 21 6 4 9 1 8 -7 -2 -7 4 -12 12
-10 12 3 12 0 -2 -14 -13 -13 -20 -15 -31 -6 -11 9 -13 8 -12 -8 1 -11 4 -22
8 -25 4 -3 5 -2 2 2 -3 4 7 12 22 18 24 10 31 9 51 -11 14 -13 30 -20 42 -17
12 3 20 0 20 -6 0 -7 -4 -9 -10 -6 -6 3 -7 -1 -4 -10 4 -9 13 -14 21 -11 8 3
17 6 20 6 3 0 1 6 -5 13 -8 9 -8 17 0 27 8 12 9 12 4 -2 -3 -11 2 -21 12 -27
14 -8 15 -12 3 -23 -10 -9 -12 -10 -7 0 10 18 1 15 -15 -5 -8 -9 -9 -14 -2
-10 6 4 14 1 16 -5 4 -10 6 -10 6 0 1 6 6 12 12 12 5 0 7 -5 3 -12 -4 -6 -3
-8 3 -5 5 4 20 -3 31 -14 12 -11 22 -15 22 -9 0 5 8 10 18 10 10 0 24 6 31 12
8 8 11 8 8 2 -9 -16 13 -31 40 -28 12 0 21 -4 20 -9 -1 -6 6 -13 17 -15 13 -3
16 0 11 9 -5 7 -4 10 3 5 6 -4 9 -13 6 -21 -5 -12 -10 -12 -27 -3 -12 6 -19 7
-15 3 4 -5 2 -15 -4 -24 -7 -9 -8 -13 -3 -8 4 4 17 -1 28 -10 11 -10 17 -13
14 -7 -8 14 20 40 30 30 4 -4 1 -12 -7 -17 -13 -9 -13 -10 0 -7 8 3 27 -9 43
-26 20 -22 26 -25 21 -11 l-7 20 23 -20 c13 -11 20 -14 16 -7 -4 6 -2 13 3 13
21 3 26 4 39 12 7 5 12 4 12 -2 0 -6 -5 -11 -11 -11 -5 0 -8 -4 -4 -9 3 -5 18
-7 32 -5 15 3 25 4 23 2 -3 -2 -14 -10 -24 -18 -11 -8 -17 -10 -13 -3 5 8 1
11 -13 8 -11 -2 -18 0 -15 5 3 5 2 11 -3 14 -4 2 -9 -4 -9 -16 -1 -13 3 -18
12 -15 20 8 27 -4 12 -22 -11 -14 -10 -15 7 -1 18 13 19 13 14 -1 -4 -9 -1
-16 7 -16 10 0 11 5 4 19 -6 11 -6 18 0 18 5 0 12 -6 14 -12 3 -8 6 -7 6 4 1
9 6 20 13 24 8 5 9 2 5 -9 -3 -10 -4 -24 0 -32 5 -14 8 -14 26 2 20 18 20 18
7 -7 l-13 -25 22 19 c11 11 21 14 21 8 0 -6 14 -9 33 -6 25 3 28 2 12 -5 -11
-5 -16 -10 -11 -10 5 -1 2 -9 -5 -18 -10 -11 -10 -14 -1 -9 7 4 12 2 12 -4 0
-7 7 -10 15 -7 15 6 28 -7 31 -31 2 -8 6 -17 9 -20 4 -4 5 0 4 8 -2 8 -1 16 4
18 4 1 6 0 5 -1 -5 -7 24 -37 35 -37 6 0 2 7 -9 15 -18 14 -16 15 28 13 26 -1
45 -5 42 -10 -3 -4 0 -8 7 -8 6 0 9 -8 6 -20 -3 -11 -1 -17 5 -14 5 3 6 20 3
37 -5 28 -3 26 15 -12 11 -24 23 -41 27 -37 11 11 42 -25 36 -42 -4 -13 -1
-12 11 3 13 14 16 15 13 4 -3 -9 0 -16 7 -16 6 0 12 8 12 18 0 11 -7 16 -18
14 -12 -3 -16 0 -12 7 4 6 3 8 -4 5 -6 -5 -8 1 -4 15 l5 22 9 -23 c4 -12 12
-20 17 -16 5 3 13 0 16 -6 4 -5 14 -8 22 -5 8 4 11 1 8 -5 -4 -6 -14 -8 -24
-4 -13 5 -14 4 -3 -7 10 -10 16 -10 33 0 26 17 40 7 35 -24 -3 -13 0 -24 5
-24 5 0 9 5 9 11 0 5 5 7 10 4 6 -4 7 -11 4 -17 -4 -7 -2 -8 4 -4 16 9 2 38
-15 32 -11 -4 -11 -1 -3 14 10 19 22 28 18 13 -1 -5 4 -18 11 -31 9 -17 10
-27 1 -37 -9 -11 -6 -13 12 -10 66 11 63 12 62 -25 -1 -19 0 -29 3 -22 3 6 10
9 16 5 7 -4 7 -1 -1 9 -10 13 -10 18 -1 24 8 5 9 3 5 -5 -5 -8 -3 -11 5 -10 8
2 24 -1 37 -5 23 -8 23 -8 5 -29 -13 -16 -13 -18 -2 -9 13 10 19 10 28 -1 6
-8 8 -17 4 -20 -3 -4 -1 -7 6 -7 7 0 11 6 8 14 -3 8 1 20 10 28 14 11 15 10 9
-10 -6 -17 -4 -21 8 -16 9 3 13 11 9 18 -4 6 1 4 12 -4 10 -8 20 -14 22 -12 2
1 11 -2 21 -7 9 -6 13 -11 7 -11 -5 0 -11 -12 -12 -27 -1 -19 1 -22 8 -12 7
12 9 12 10 -1 1 -8 1 -18 1 -21 -1 -3 5 -6 13 -6 8 0 13 5 12 11 -1 6 7 10 18
8 16 -2 17 -1 5 7 -9 7 -19 6 -27 -1 -9 -7 -13 -7 -13 1 0 10 14 15 34 12 5
-1 12 3 16 10 6 8 9 8 14 0 4 -6 2 -11 -4 -11 -6 0 -8 -5 -5 -10 4 -6 12 -7
18 -3 19 12 37 12 37 2 0 -6 4 -8 8 -5 5 3 8 -10 7 -29 -1 -34 5 -39 34 -36 7
2 10 -2 6 -8 -3 -7 0 -8 9 -5 8 3 12 13 9 22 -4 15 -3 15 6 2 6 -8 15 -16 21
-16 5 -1 15 -2 22 -3 16 -2 4 -11 -21 -16 -15 -3 -19 0 -14 8 4 7 0 6 -10 -2
-23 -18 -22 -18 21 -16 51 3 66 -3 51 -21 -9 -12 -8 -18 7 -28 10 -8 25 -12
34 -9 13 4 13 4 0 -6 -8 -6 -24 -8 -35 -5 -16 4 -17 3 -5 -5 8 -6 27 -8 43 -6
15 3 27 1 27 -5 0 -6 4 -9 8 -6 4 2 9 -7 10 -21 1 -15 -1 -23 -5 -19 -5 4 -8
13 -8 19 -1 7 -7 11 -14 9 -7 -1 -10 2 -6 8 4 6 -1 7 -11 3 -11 -4 -13 -8 -6
-11 7 -2 9 -9 6 -14 -4 -6 -2 -8 3 -5 15 9 31 -14 28 -40 -1 -12 2 -20 7 -17
5 4 7 12 4 20 -7 17 7 26 28 18 15 -6 15 -9 1 -30 -13 -21 -13 -23 0 -18 8 4
15 1 15 -5 0 -6 5 -11 12 -11 9 0 9 3 0 12 -7 7 -12 16 -12 21 0 11 16 -5 60
-63 19 -24 33 -51 32 -59 -3 -13 -1 -13 12 -2 10 8 16 9 16 3 0 -6 -4 -14 -10
-17 -19 -12 -11 -26 9 -15 22 11 40 -4 20 -16 -8 -5 -9 -3 -4 7 5 8 4 10 0 6
-14 -13 -14 -34 1 -34 7 0 11 4 8 9 -3 4 0 8 6 8 6 0 10 -8 9 -17 -3 -33 1
-44 12 -37 8 4 7 9 -2 16 -11 8 -11 9 1 5 8 -2 14 -11 14 -20 -1 -10 3 -14 9
-10 6 4 8 0 4 -10 -3 -9 -2 -19 4 -23 18 -11 20 2 4 40 -9 21 -11 35 -6 31 6
-3 11 -14 11 -23 0 -15 2 -15 11 -2 8 12 9 10 4 -9 -5 -14 -3 -21 3 -17 5 3 9
-2 8 -11 0 -9 6 -18 14 -20 12 -4 12 -3 1 5 -8 6 -9 12 -3 16 5 3 13 -1 16 -9
6 -18 -17 -31 -35 -19 -8 4 -9 3 -5 -4 8 -14 66 -11 66 3 0 6 4 4 9 -4 5 -8 7
-20 4 -27 -2 -7 3 -24 12 -38 9 -14 17 -29 17 -33 0 -4 1 -10 4 -12 2 -2 2 6
-1 17 -2 14 1 19 10 16 7 -3 16 0 20 6 4 6 1 11 -6 9 -28 -3 -40 1 -33 13 4 7
3 8 -4 4 -8 -5 -10 -1 -5 10 4 11 8 13 11 6 2 -7 8 -12 13 -12 6 0 7 5 3 12
-4 7 -3 8 5 4 6 -4 9 -11 6 -16 -3 -4 2 -11 11 -14 15 -6 15 -8 -1 -26 -16
-18 -16 -20 -2 -20 11 0 15 -6 11 -18 -5 -13 -4 -14 4 -3 6 8 8 20 5 28 -3 7
0 13 5 13 19 0 21 -16 6 -45 -10 -19 -10 -25 -2 -18 14 10 73 11 73 0 0 -3 -4
-9 -9 -14 -5 -5 -6 -2 -1 6 6 10 4 12 -4 7 -9 -6 -9 -12 1 -24 20 -27 22 -28
15 -11 -4 13 0 16 18 15 13 0 23 -5 22 -11 -1 -5 4 -9 11 -7 8 1 11 -2 7 -8
-9 -14 8 -13 23 2 9 9 12 9 12 0 0 -7 -4 -12 -10 -12 -14 0 -12 -16 5 -33 8
-8 11 -18 7 -23 -4 -5 0 -3 9 4 11 8 19 8 26 1 7 -7 15 -5 27 6 9 9 16 12 16
6 0 -5 -4 -13 -10 -16 -5 -3 -10 -9 -10 -13 0 -9 57 -44 64 -40 2 2 8 0 12 -4
4 -5 2 -8 -5 -8 -7 0 -9 -5 -5 -11 4 -8 9 -7 15 2 6 11 11 11 20 2 6 -6 18 -9
25 -6 9 3 13 0 11 -8 -2 -8 -2 -11 0 -6 3 4 11 7 19 7 9 0 12 -5 8 -12 -4 -6
-3 -8 3 -5 10 6 59 -25 75 -48 5 -6 8 -5 8 3 0 7 5 10 10 7 6 -4 7 -12 3 -18
-5 -8 -2 -8 9 0 15 13 28 8 28 -9 0 -5 -6 -6 -12 -2 -7 4 -9 3 -5 -1 14 -16
33 -13 33 5 0 10 -4 17 -7 14 -15 -9 -18 14 -3 27 8 7 14 8 13 3 -4 -21 2 -26
19 -13 14 11 13 10 -2 -9 -12 -13 -14 -22 -7 -22 7 0 9 -5 5 -12 -4 -7 -3 -8
5 -4 6 4 9 12 6 17 -4 5 -3 9 2 10 4 0 18 2 29 5 12 2 27 -3 34 -11 7 -8 17
-12 22 -9 5 3 1 15 -9 27 -10 13 -3 9 19 -8 20 -17 37 -36 37 -42 1 -7 6 -13
12 -13 5 0 7 -6 3 -13 -6 -9 -4 -9 7 -1 8 6 28 13 45 16 26 3 31 1 26 -11 -5
-14 -3 -14 11 -2 14 11 20 11 32 1 8 -7 15 -17 15 -22 0 -5 -7 -2 -16 6 -8 9
-20 13 -25 10 -6 -3 -2 -12 8 -20 16 -13 16 -14 1 -8 -10 3 -18 2 -18 -4 0 -6
145 -10 401 -11 321 -1 399 1 393 11 -6 10 -4 10 7 2 19 -15 112 -12 132 5 20
16 13 33 -11 24 -15 -6 -15 -4 -4 9 11 14 10 18 -5 27 -14 8 -10 9 20 6 24 -3
36 -1 32 5 -3 5 -1 10 4 10 16 0 13 -16 -4 -30 -12 -10 -15 -10 -15 0 0 8 -3
11 -6 7 -3 -3 -3 -11 1 -17 5 -8 11 -8 21 1 8 6 14 8 14 4 0 -4 7 -2 15 5 12
10 18 10 32 -1 15 -13 15 -12 3 8 -11 16 -17 19 -27 11 -7 -6 -13 -7 -13 -2 0
5 13 18 28 28 15 11 24 16 20 11 -4 -4 -2 -15 5 -23 10 -13 9 -14 -2 -7 -10 5
-12 4 -7 -4 4 -6 12 -9 17 -6 5 4 9 1 9 -6 0 -7 3 -10 6 -7 3 4 0 17 -6 30
-10 19 -10 21 1 11 16 -16 43 -17 33 -1 -4 7 -3 8 4 4 6 -4 9 -14 6 -24 -4
-10 -2 -13 3 -7 4 6 18 10 30 9 15 -1 20 3 15 14 -4 11 -2 13 8 7 9 -6 11 -4
5 5 -6 10 -11 9 -21 -5 -8 -10 -15 -17 -17 -14 -1 2 -9 13 -17 24 -14 19 -14
19 3 6 12 -10 21 -11 30 -3 10 9 19 7 35 -4 12 -8 22 -12 22 -7 0 4 5 1 10 -7
6 -9 10 -10 10 -3 0 6 -5 15 -10 18 -8 5 -7 12 2 23 12 16 11 16 -7 2 -11 -8
-17 -11 -13 -6 4 5 3 18 -3 30 -9 18 -8 19 3 5 7 -9 18 -18 23 -20 6 -2 9 -11
8 -19 -1 -11 2 -10 12 4 8 10 18 15 24 12 5 -4 13 -1 17 5 4 8 3 9 -4 5 -7 -4
-12 -2 -12 5 0 8 -4 8 -15 -1 -10 -9 -15 -9 -15 -1 0 10 6 12 27 10 4 0 10 8
14 18 7 17 8 17 8 1 1 -21 21 -25 21 -4 0 8 6 16 13 18 17 7 38 -2 32 -12 -3
-5 8 -4 25 1 29 10 38 28 23 43 -4 3 -8 13 -9 21 -2 12 2 13 18 4 23 -12 39
-2 18 11 -9 6 -10 10 -3 10 21 0 26 -21 9 -38 -10 -11 -16 -12 -16 -4 0 7 -5
12 -11 12 -8 0 -8 -5 1 -15 10 -12 16 -13 28 -3 13 11 15 10 9 -6 -7 -16 -5
-17 9 -5 9 7 12 15 6 17 -6 2 -8 10 -5 18 6 17 53 19 53 2 0 -9 3 -9 9 1 6 9
6 22 0 34 -10 18 -10 18 18 1 l28 -18 -18 21 c-14 16 -15 23 -6 29 7 4 10 3 6
-3 -4 -6 0 -14 9 -17 13 -5 15 -2 11 14 -3 11 0 23 5 27 6 3 8 2 5 -3 -3 -6 3
-16 15 -23 16 -10 18 -10 12 0 -5 9 -2 10 11 5 14 -5 16 -4 7 7 -9 10 -8 17 1
27 10 12 9 12 -5 1 -12 -9 -22 -10 -35 -2 -17 9 -17 10 2 9 11 0 27 1 35 3 10
3 14 -3 13 -16 -1 -20 -1 -20 13 -1 8 11 14 23 14 28 0 4 5 8 11 8 5 0 7 -5 4
-10 -3 -6 -1 -10 4 -10 6 0 11 4 11 9 0 14 -26 32 -35 23 -5 -4 -5 -1 -1 6 5
8 13 9 26 2 24 -13 30 -13 30 0 0 6 -8 10 -17 11 -14 0 -15 2 -3 6 8 3 25 16
39 29 19 17 28 20 38 12 12 -9 17 -5 14 14 0 4 10 6 24 5 13 -1 24 1 25 6 1
27 -1 29 -13 12 -11 -14 -16 -15 -22 -5 -6 9 -4 11 5 5 10 -6 12 -4 6 11 -4
10 -4 15 0 11 4 -4 19 0 33 10 23 15 25 15 13 0 -15 -17 -8 -38 11 -36 9 0 9
2 0 6 -20 7 -15 23 5 17 14 -5 15 -4 2 5 -8 6 -11 11 -6 11 5 0 2 8 -5 17 -10
11 -10 14 -2 9 8 -4 17 2 24 18 7 14 16 23 21 20 4 -3 1 -12 -7 -20 -18 -18
-20 -34 -3 -34 6 0 8 3 5 7 -12 12 13 31 36 27 l22 -5 -22 10 c-31 14 -30 40
0 37 13 -1 29 -6 37 -11 13 -8 13 -6 1 8 -7 9 -17 15 -21 12 -17 -10 -19 13
-3 26 9 8 14 9 10 3 -4 -7 1 -15 10 -19 10 -3 19 -1 21 4 2 6 8 9 13 5 15 -9
10 3 -8 17 -10 8 -14 9 -10 2 4 -6 2 -15 -4 -19 -7 -4 -9 -3 -5 4 3 6 2 13 -4
17 -5 3 -10 12 -10 18 0 8 3 8 8 2 12 -17 35 -17 29 0 -4 8 -2 15 4 15 6 0 7
5 3 12 -4 7 -3 8 5 4 6 -4 8 -13 5 -19 -4 -7 -4 -9 1 -5 4 4 13 1 19 -8 10
-13 12 -13 12 5 0 11 -3 18 -6 16 -3 -2 -12 5 -19 17 -7 11 -8 17 -2 13 6 -3
14 1 17 9 3 9 17 16 30 16 13 0 24 5 24 11 0 5 -4 8 -9 4 -5 -3 -12 -1 -16 4
-3 6 5 8 20 5 26 -5 34 9 13 22 -7 4 -8 3 -4 -4 5 -8 1 -10 -9 -6 -11 5 -13
10 -6 17 5 5 16 7 23 5 21 -9 33 -4 30 11 -2 9 2 12 13 7 10 -3 14 -2 10 5 -4
6 -14 8 -23 4 -9 -3 -13 -3 -9 1 4 4 2 13 -4 21 -9 9 -8 13 0 13 6 0 11 -4 11
-10 0 -5 11 -9 24 -8 14 1 22 6 20 10 -3 5 -10 6 -15 3 -14 -9 -6 45 8 57 9 7
13 7 13 0 0 -5 8 -13 17 -16 10 -4 14 -4 10 0 -4 4 1 13 11 21 15 13 15 13 -5
4 -16 -8 -22 -7 -26 4 -4 10 -1 12 10 8 12 -5 14 -3 8 7 -6 10 -3 12 13 8 15
-4 20 -3 15 5 -14 23 -11 40 10 58 12 10 18 18 13 19 -5 0 -3 7 4 15 10 12 10
18 -1 32 -11 13 -8 13 12 -2 15 -11 24 -24 21 -29 -3 -5 0 -6 6 -3 5 4 9 15 8
25 -2 9 1 20 6 23 5 3 3 9 -6 12 -8 3 -18 1 -22 -5 -4 -6 -3 -8 3 -5 5 3 10 0
10 -8 0 -10 -4 -12 -12 -5 -10 8 -12 41 -5 60 1 3 2 9 1 14 -1 5 5 4 13 -3 13
-11 17 -10 22 3 6 15 27 24 21 9 -1 -5 2 -9 7 -11 5 -1 11 11 13 28 2 19 -1
29 -7 25 -6 -4 -7 1 -3 11 5 13 3 15 -8 9 -8 -5 -11 -5 -6 1 5 5 13 10 18 10
22 3 23 5 9 14 -10 6 -11 10 -2 10 6 0 12 7 12 15 0 8 4 15 8 15 5 0 9 -7 9
-15 0 -8 -4 -15 -9 -15 -5 0 -7 -4 -3 -9 3 -5 1 -12 -4 -16 -12 -7 -3 -35 11
-35 6 0 6 6 -1 14 -7 9 -8 17 -2 20 5 3 12 0 14 -6 3 -7 4 2 2 20 -3 23 1 35
11 39 12 4 13 8 4 13 -7 4 -9 13 -6 19 4 6 13 8 19 4 7 -4 6 1 -2 11 -13 15
-13 19 0 27 12 7 12 9 -1 9 -12 0 -12 2 -2 9 11 7 10 9 -3 14 -11 5 -14 3 -9
-6 4 -6 4 -9 -1 -5 -4 4 -15 2 -24 -5 -9 -7 -8 -2 4 15 11 15 26 30 34 33 11
4 11 2 3 -8 -9 -10 -8 -14 3 -14 8 0 12 5 8 10 -3 5 5 7 18 3 13 -3 18 -3 11
0 -6 3 -9 11 -5 17 4 7 8 17 8 22 1 6 7 9 15 7 11 -3 11 0 -1 14 -12 16 -12
17 3 11 10 -3 20 -1 24 5 4 6 3 8 -4 4 -6 -3 -17 0 -25 8 -14 15 -27 12 -27
-6 0 -5 6 -6 13 -2 9 6 9 5 0 -8 -7 -8 -9 -19 -5 -23 4 -5 0 -4 -8 0 -13 8
-13 6 -2 -7 17 -21 1 -31 -30 -18 l-23 11 23 -5 c15 -3 22 0 19 7 -2 7 -9 12
-14 12 -6 0 -14 3 -18 6 -3 4 4 6 16 5 17 -1 22 5 25 27 2 18 -1 25 -8 21 -7
-4 -8 -2 -4 4 5 9 13 9 29 0 28 -15 49 -19 41 -7 -3 5 -10 6 -16 3 -7 -5 -9
-1 -5 9 3 9 1 19 -5 23 -7 5 -8 2 -3 -6 5 -8 4 -11 -3 -6 -6 4 -8 14 -5 24 6
15 5 16 -13 2 -18 -14 -18 -14 -5 2 7 10 18 15 24 11 6 -4 8 0 4 11 -4 10 -3
15 3 11 12 -8 13 5 0 25 -5 9 -5 19 2 27 8 10 4 15 -13 22 -19 8 -20 10 -6 10
10 1 15 5 12 11 -3 5 3 15 15 22 11 7 20 16 20 21 0 4 -4 5 -10 2 -5 -3 -10 1
-10 10 0 9 5 13 11 9 8 -4 9 1 4 16 -5 15 -3 20 3 16 6 -3 14 -1 18 5 4 8 3 9
-4 5 -7 -4 -12 -2 -12 4 0 6 -4 9 -9 5 -5 -3 -12 -1 -16 4 -3 6 3 8 15 6 11
-2 23 1 26 7 4 6 2 8 -4 4 -7 -4 -10 2 -9 14 1 14 6 19 17 15 11 -4 11 -2 -2
8 -10 8 -14 18 -10 22 4 5 1 5 -6 1 -7 -4 -10 -12 -7 -17 4 -5 1 -9 -5 -9 -6
0 -10 8 -8 18 2 9 -3 16 -9 15 -7 -2 -13 2 -13 8 0 6 9 8 20 4 13 -4 20 -2 20
7 1 7 8 1 16 -14 8 -16 17 -28 20 -28 3 0 -3 16 -15 36 -25 41 -26 51 -7 35
11 -9 16 -9 22 0 5 8 3 9 -6 4 -10 -6 -12 -4 -7 8 4 12 2 14 -10 10 -12 -5
-14 -3 -8 7 5 8 4 11 -3 7 -5 -4 -9 -18 -7 -32 1 -14 -2 -25 -8 -25 -5 0 -7 9
-4 21 4 16 2 19 -11 15 -10 -4 -7 2 7 12 16 13 20 22 12 26 -15 10 -14 29 2
23 6 -2 11 -10 10 -16 -4 -16 14 -14 20 3 6 16 -10 36 -27 32 -6 -2 -7 -1 -2
2 5 3 -2 11 -15 19 l-24 14 23 -6 c22 -6 22 -5 10 14 -8 13 -19 19 -28 16 -12
-5 -13 -4 -2 7 11 11 16 10 28 -6 10 -15 14 -16 14 -5 0 8 -6 21 -12 28 -7 8
-8 11 -2 8 6 -4 20 3 30 15 19 21 19 21 -4 9 -13 -7 -26 -10 -30 -7 -3 3 1 6
8 6 7 0 10 3 7 6 -3 4 -1 16 5 28 17 29 20 54 8 61 -6 3 -10 11 -10 17 0 6 7
5 18 -3 15 -13 16 -12 4 3 -8 9 -11 22 -7 27 3 6 0 8 -8 6 -8 -4 -13 -20 -13
-40 1 -19 5 -31 11 -28 5 4 6 2 2 -2 -4 -5 -15 -10 -24 -11 -11 -2 -13 0 -5 8
8 8 8 17 1 30 -7 12 -6 18 1 18 6 0 8 5 5 10 -4 6 -11 8 -16 4 -6 -3 -5 3 3
15 7 12 16 21 21 21 4 0 5 -5 1 -12 -4 -7 -3 -8 4 -4 6 4 9 13 6 21 -4 8 -10
12 -15 9 -5 -3 -9 0 -9 6 0 6 -5 8 -12 4 -7 -4 -8 -3 -4 5 4 6 12 9 17 6 5 -3
6 1 3 9 -3 9 -9 14 -13 11 -4 -2 -7 15 -6 38 0 23 -4 45 -10 49 -6 5 -5 8 3 8
7 0 10 5 7 10 -4 6 -11 7 -17 4 -7 -5 -8 -2 -2 7 13 20 12 70 0 66 -6 -2 -10
-13 -8 -23 2 -15 1 -16 -7 -5 -13 19 -2 43 18 39 9 -2 16 -12 15 -24 -1 -17 3
-20 19 -16 17 4 18 7 5 11 -8 3 -14 14 -12 24 1 11 0 16 -3 13 -4 -3 -12 -1
-20 5 -10 9 -18 8 -30 -2 -10 -7 -4 2 12 20 17 19 24 31 18 27 -7 -4 -13 -2
-13 3 0 6 5 11 12 11 6 0 9 2 6 5 -3 3 -13 3 -22 -1 -12 -4 -14 -10 -6 -19 7
-8 3 -15 -15 -23 -20 -9 -23 -9 -18 3 3 8 10 12 15 9 6 -4 8 -1 6 7 -3 8 -14
13 -24 11 -19 -3 -19 -3 0 11 18 13 18 14 -5 30 -13 10 -18 17 -11 17 7 0 10
5 7 10 -4 6 -11 7 -17 4 -6 -4 -8 -2 -4 4 3 5 21 9 39 6 l32 -3 -27 10 c-22 8
-28 17 -28 40 0 20 4 28 12 23 6 -4 8 -3 4 4 -3 5 -3 12 1 15 5 2 2 2 -4 1 -8
-2 -12 8 -11 29 1 51 -1 57 -19 57 -17 -1 -17 -2 0 -14 13 -10 15 -16 7 -21
-9 -6 -9 -10 1 -16 11 -7 10 -9 -4 -9 -14 0 -17 5 -11 22 6 21 6 22 -12 8 -18
-14 -18 -14 -5 3 7 9 10 17 5 17 -5 1 5 12 21 27 l30 26 -37 -21 c-34 -19 -38
-19 -50 -4 -11 15 -11 16 4 4 10 -8 19 -9 22 -3 3 5 3 11 -1 14 -5 2 -3 2 4 1
7 -2 15 2 19 8 5 7 2 8 -6 3 -9 -5 -11 -1 -6 16 3 13 3 18 0 11 -3 -6 -11 -9
-16 -6 -7 4 -8 2 -4 -4 5 -8 2 -10 -9 -6 -11 5 -13 10 -5 19 5 6 6 16 2 20 -4
5 0 6 9 3 9 -4 16 -1 16 7 0 7 -6 11 -14 8 -9 -4 -11 0 -7 13 6 17 5 17 -10
-1 -12 -14 -19 -16 -22 -7 -3 6 -11 9 -17 6 -8 -5 -8 -2 1 7 6 7 12 17 12 22
0 4 -6 5 -12 1 -10 -6 -10 -4 0 7 20 22 14 54 -13 69 -14 7 -25 18 -25 23 0 5
6 4 14 -2 18 -15 29 9 14 30 -8 11 -9 10 -4 -4 3 -11 2 -16 -4 -12 -6 3 -10
13 -10 21 0 8 -4 13 -9 10 -4 -3 -7 6 -5 19 1 14 -1 23 -4 21 -4 -2 -15 2 -26
9 -14 11 -17 23 -13 54 3 27 0 45 -9 52 -11 9 -12 15 -3 26 10 11 8 12 -6 7
-13 -5 -16 -4 -11 4 4 7 2 12 -6 12 -10 0 -9 3 2 11 12 8 10 9 -7 4 -19 -5
-22 -3 -17 12 5 14 4 15 -4 3 -6 -8 -9 -17 -6 -21 2 -4 0 -10 -5 -14 -6 -3 -8
6 -5 21 3 16 1 23 -6 19 -6 -4 -7 1 -3 11 4 12 3 15 -5 10 -7 -4 -13 -2 -13 3
-3 26 -4 30 -11 37 -5 4 -8 2 -8 -4 0 -7 -4 -12 -9 -12 -8 0 -8 8 -2 39 1 2 8
-2 16 -9 10 -9 15 -9 15 -1 0 6 -4 11 -9 11 -6 0 -8 9 -6 19 3 15 0 18 -13 14
-15 -6 -16 -5 -2 13 14 17 13 18 -1 7 -9 -7 -18 -12 -20 -10 -3 1 3 -5 12 -14
16 -14 15 -16 -5 -28 -16 -10 -18 -10 -9 -1 13 15 2 30 -32 44 -13 6 -16 10
-7 13 10 4 10 8 0 20 -15 18 -20 45 -7 37 5 -3 7 -10 4 -15 -3 -5 1 -6 9 -3
12 5 11 9 -5 25 -11 11 -17 24 -14 29 4 6 0 13 -9 16 -8 3 -12 13 -9 22 4 15
3 15 -6 2 -10 -15 -12 -13 -15 13 0 6 -5 12 -11 12 -5 0 -15 4 -22 8 -6 4 -15
2 -19 -4 -5 -8 -3 -9 6 -4 9 6 11 4 5 -5 -6 -9 -4 -11 5 -5 9 6 11 4 5 -5 -6
-9 -4 -11 5 -5 9 6 11 4 5 -5 -6 -9 -4 -11 5 -5 9 6 11 4 5 -5 -6 -9 -4 -11 5
-5 9 6 11 4 5 -5 -6 -9 -4 -11 5 -5 9 5 11 4 6 -4 -4 -6 -13 -8 -19 -4 -22 13
-52 57 -49 71 2 8 -1 12 -6 8 -10 -6 -10 24 1 40 7 13 -1 24 -17 24 -6 0 -5
-4 3 -9 20 -13 1 -18 -34 -10 -28 6 -28 7 -5 9 16 1 20 4 10 7 -8 4 -23 17
-34 30 -10 14 -28 29 -40 34 -19 8 -18 9 6 6 15 -2 25 0 22 4 -3 5 -22 9 -42
9 l-37 1 25 14 c29 17 22 19 -15 5 -20 -8 -27 -7 -32 6 -5 13 -8 13 -15 2 -8
-10 -9 -9 -5 3 6 17 -27 52 -38 41 -3 -4 -3 2 1 11 6 17 8 16 21 -3 8 -11 19
-17 25 -14 7 4 8 2 4 -5 -4 -6 0 -14 8 -17 9 -3 13 -10 10 -15 -3 -5 2 -6 10
-3 12 5 11 10 -6 29 -12 14 -25 22 -29 19 -11 -6 -40 51 -31 61 4 5 2 5 -5 1
-7 -4 -10 -13 -6 -21 4 -11 1 -13 -11 -9 -9 3 -13 11 -9 17 4 6 1 7 -7 2 -10
-6 -9 -11 5 -22 11 -7 14 -13 8 -13 -7 0 -15 5 -18 10 -4 6 -10 8 -15 5 -4 -3
-13 2 -20 10 -7 8 -16 13 -20 10 -8 -5 -20 16 -26 43 -2 10 1 10 12 1 7 -6 11
-16 7 -22 -4 -6 0 -8 11 -4 12 5 15 3 10 -6 -4 -7 -3 -9 2 -4 5 5 9 14 9 20 0
7 5 12 12 12 6 0 14 3 17 7 3 5 3 6 -1 3 -3 -3 -13 1 -21 8 -11 8 -14 8 -9 0
14 -22 -16 -26 -34 -5 -10 13 -24 20 -33 16 -11 -4 -14 0 -11 16 4 22 4 22
-17 4 -12 -11 -18 -13 -14 -6 4 7 2 12 -5 12 -6 0 -9 8 -6 20 3 12 1 18 -5 14
-5 -3 -7 -18 -4 -33 l5 -26 -11 25 c-7 14 -18 29 -25 33 -8 5 -10 13 -7 19 5
7 2 8 -6 3 -10 -6 -12 -4 -7 9 4 11 3 15 -4 11 -6 -4 -8 -12 -6 -19 3 -6 -3
-18 -11 -26 -14 -13 -15 -12 -9 4 8 19 -9 59 -22 52 -5 -3 -16 3 -26 14 -9 10
-23 16 -31 13 -10 -4 -13 0 -8 13 5 15 4 16 -4 5 -7 -10 -6 -21 5 -38 9 -13
13 -26 10 -29 -3 -3 -8 4 -12 16 -5 17 -9 19 -21 9 -12 -10 -16 -8 -21 9 -3
12 -10 22 -16 22 -7 0 -7 4 1 12 7 7 12 17 12 23 0 5 -5 3 -10 -5 -13 -20 -70
-22 -62 -1 3 9 1 12 -7 7 -6 -4 -18 -2 -26 4 -12 10 -15 9 -15 -4 0 -19 -16
-21 -26 -4 -4 6 -3 8 3 5 6 -4 14 0 17 9 4 12 1 14 -14 9 -12 -4 -20 -2 -20 5
0 6 -4 9 -8 6 -5 -3 -9 1 -9 9 0 10 4 12 12 5 7 -5 16 -6 20 -2 5 4 5 0 0 -8
-6 -12 -5 -13 5 -3 11 10 16 9 27 -5 8 -9 11 -11 7 -3 -5 9 -3 12 5 7 6 -4 9
-12 6 -17 -4 -5 -1 -9 4 -9 6 0 11 4 11 9 0 15 -40 39 -58 36 -9 -1 -20 2 -23
7 -8 13 -40 -2 -32 -16 3 -6 1 -6 -8 2 -20 18 -33 15 -18 -5 13 -17 12 -17 -6
-2 -11 9 -25 15 -31 12 -17 -6 -26 27 -13 43 6 8 7 14 2 14 -5 0 -15 -11 -21
-25 -13 -27 -19 -30 -42 -15 -13 9 -12 12 4 25 17 13 17 15 4 15 -9 0 -19 -9
-23 -20 -6 -19 -6 -19 -27 0 -12 11 -25 17 -31 13 -5 -3 -4 -8 3 -13 8 -5 7
-9 -5 -13 -9 -4 -13 -3 -10 3 3 6 1 10 -6 10 -7 0 -5 6 6 14 18 13 15 53 -4
42 -5 -4 -11 -3 -14 1 -2 5 -2 2 -1 -4 2 -7 -2 -13 -7 -13 -6 0 -9 -8 -7 -18
3 -11 0 -19 -7 -19 -7 0 -10 8 -7 20 3 14 1 18 -9 15 -8 -3 -14 -10 -14 -15 0
-6 -3 -14 -6 -17 -3 -4 -5 10 -4 29 1 20 -4 44 -12 53 -12 16 -13 16 -7 -1 4
-11 2 -17 -6 -15 -7 2 -15 -4 -17 -12 -4 -12 -3 -12 5 -2 7 11 11 10 16 -4 4
-9 2 -22 -4 -28 -8 -8 -9 -6 -5 6 5 14 2 16 -14 13 -12 -2 -19 0 -16 6 4 5 -4
7 -17 5 -13 -2 -35 3 -50 10 -15 8 -30 14 -33 14 -22 -1 -25 1 -19 12 4 6 3 8
-4 5 -5 -4 -9 -15 -7 -25 1 -9 0 -11 -2 -4 -8 22 -25 13 -17 -10 8 -27 -4 -18
-20 14 -17 32 -32 32 -46 -1 -7 -17 -17 -28 -22 -25 -6 4 -5 10 3 15 16 10 6
22 -20 24 -11 1 -27 8 -37 16 -10 8 -15 9 -11 2 12 -19 -11 -25 -23 -6 -11 17
-11 17 -6 1 6 -19 -16 -21 -44 -3 -13 8 -13 7 0 -10 14 -17 14 -18 -7 -6 -15
7 -23 8 -23 1 0 -5 -5 -10 -11 -10 -5 0 -8 4 -4 9 8 14 -15 25 -27 13 -7 -7
-17 -8 -28 -2 -11 6 -17 5 -17 -4 0 -13 31 -15 43 -3 15 15 24 6 14 -13 -7
-12 -16 -18 -23 -13 -20 12 -49 10 -54 -4 -8 -19 -32 16 -26 37 4 13 4 13 -6
0 -6 -8 -8 -24 -5 -35 4 -15 3 -16 -4 -6 -8 11 -10 11 -14 0 -3 -9 -6 -8 -11
5 -4 9 -3 15 1 12 4 -2 8 4 9 14 1 11 -3 23 -9 26 -7 4 -8 2 -4 -5 4 -6 0 -19
-9 -28 -12 -12 -13 -18 -4 -23 6 -4 -5 -7 -24 -6 -20 0 -42 7 -49 14 -10 10
-6 12 25 8 20 -2 37 0 37 5 0 6 -6 9 -12 8 -34 -4 -59 2 -52 13 4 7 3 8 -5 4
-6 -4 -9 -11 -6 -16 3 -5 1 -11 -4 -15 -5 -3 -15 3 -21 12 -11 17 -11 17 -6 1
3 -10 1 -18 -5 -18 -6 0 -7 -5 -3 -11 3 -6 9 -7 13 -3 11 15 27 13 38 -5 9
-14 8 -18 -3 -18 -7 0 -11 4 -8 9 3 4 -2 8 -10 8 -8 0 -20 -8 -25 -17 -6 -11
-11 -13 -11 -5 0 7 -4 10 -10 7 -5 -3 -10 -1 -10 4 0 6 6 11 13 11 8 0 7 4 -3
10 -10 6 -11 10 -2 10 6 0 12 4 12 8 0 5 -6 9 -14 9 -8 0 -15 -3 -14 -6 2 -20
-4 -22 -21 -7 -13 12 -21 14 -26 6 -3 -6 -3 -9 2 -8 4 2 9 -1 10 -7 1 -5 -4
-9 -12 -9 -7 1 -11 -4 -9 -11 3 -6 11 -12 19 -12 8 0 12 3 10 7 -2 4 2 7 10 7
17 0 21 -16 5 -18 -5 -1 -15 -2 -22 -3 -6 0 -13 -7 -16 -15 -3 -9 0 -11 9 -6
8 5 10 4 6 0 -13 -15 -36 -14 -30 1 3 9 0 12 -9 9 -9 -4 -15 0 -15 10 0 18 8
19 27 3 12 -11 12 -10 1 4 -7 9 -21 16 -31 15 -14 -1 -16 -5 -9 -13 6 -8 6
-14 0 -18 -5 -3 -11 -1 -13 6 -3 8 -7 6 -11 -4 -4 -12 -1 -16 13 -13 26 5 34
-9 14 -26 -12 -10 -15 -10 -12 1 2 8 -4 15 -12 16 -32 3 -35 5 -20 14 8 5 11
12 7 17 -9 9 -28 -17 -21 -29 3 -4 0 -8 -6 -8 -6 0 -8 -6 -5 -12 4 -7 -3 -2
-14 11 -12 12 -18 28 -14 34 3 6 1 7 -6 3 -9 -6 -6 -17 10 -44 19 -34 19 -35
2 -19 -11 9 -22 17 -26 17 -3 0 -4 -8 -1 -17 5 -15 4 -15 -4 -3 -8 10 -7 19 1
29 9 11 9 13 0 8 -6 -4 -13 -4 -16 0 -2 5 -2 2 0 -6 2 -9 -2 -11 -14 -7 -14 6
-14 4 3 -16 14 -16 14 -19 2 -10 -9 8 -25 12 -35 9 -15 -3 -14 -6 7 -15 17 -7
20 -11 8 -11 -9 -1 -20 4 -23 10 -4 6 -13 8 -20 5 -16 -6 -38 17 -27 29 4 5 1
5 -6 1 -7 -5 -11 -10 -8 -13 3 -3 1 -14 -5 -25 -9 -16 -13 -17 -26 -6 -13 10
-13 7 2 -15 10 -15 15 -30 11 -34 -3 -3 -6 -1 -6 5 0 7 -4 12 -10 12 -5 0 -7
-6 -4 -13 3 -8 -3 -20 -13 -27 -15 -12 -16 -12 -5 0 6 8 12 18 12 23 0 4 -6 5
-12 1 -10 -6 -10 -4 0 7 15 16 16 29 1 29 -5 0 -7 -4 -4 -10 6 -9 -8 -15 -29
-11 -5 1 -4 -4 2 -12 10 -11 9 -17 -5 -28 -16 -13 -17 -12 -5 2 10 14 10 18
-4 23 -9 3 -20 3 -25 0 -6 -3 -18 0 -27 8 -15 12 -16 11 -3 -4 14 -19 2 -25
-15 -8 -13 13 -13 -27 -1 -47 4 -6 2 -15 -4 -19 -7 -4 -10 -3 -6 2 3 5 -1 17
-8 27 -13 17 -14 17 -20 -3 -6 -20 -8 -20 -19 -4 -11 15 -13 15 -13 1 0 -23
25 -29 37 -9 10 15 11 15 5 -2 -3 -11 0 -23 7 -28 9 -5 4 -7 -12 -6 -16 2 -24
-2 -22 -10 1 -8 -2 -11 -8 -7 -5 3 -10 1 -10 -6 0 -7 -6 -4 -14 6 -8 11 -12
24 -8 29 3 5 8 3 11 -6 5 -14 8 -14 19 -2 11 12 10 14 -3 14 -8 0 -18 0 -22 1
-5 0 -15 -10 -23 -22 -8 -13 -10 -20 -3 -16 6 4 14 3 17 -2 7 -10 -35 -8 -53
3 -6 4 -11 4 -10 -1 3 -12 -18 -60 -31 -68 -5 -3 -8 -11 -5 -16 4 -5 1 -9 -5
-9 -7 0 -9 7 -6 16 5 12 1 14 -15 9 -13 -4 -19 -3 -16 2 4 5 -1 10 -9 10 -11
0 -9 -6 8 -24 12 -12 18 -26 15 -30 -4 -3 -7 -2 -7 4 0 6 -7 13 -15 17 -10 4
-14 -1 -12 -17 1 -13 -3 -21 -10 -20 -7 2 -13 -3 -13 -10 0 -9 -2 -9 -9 1 -4
8 -11 13 -15 13 -18 -3 -27 0 -22 7 4 6 -12 7 -59 3 -5 -1 -4 -5 4 -10 7 -5
21 -7 30 -4 10 2 24 -4 32 -13 9 -11 9 -15 2 -10 -8 4 -13 2 -13 -5 0 -7 -7
-4 -16 7 -14 17 -15 17 -10 1 3 -11 2 -16 -4 -12 -6 3 -10 0 -11 -7 0 -7 -7 0
-14 17 -7 16 -10 36 -7 45 4 11 -1 10 -19 -5 l-24 -20 18 21 c11 13 26 20 36
17 11 -3 21 2 25 12 4 11 2 14 -7 8 -6 -4 -22 -8 -34 -8 -16 -1 -19 2 -12 11
7 9 5 15 -5 21 -13 7 -13 10 4 20 16 11 18 10 15 -6 -4 -23 10 -47 19 -32 4 6
1 11 -6 11 -9 0 -9 3 2 10 8 5 10 10 3 10 -14 0 -11 23 5 42 9 12 9 15 -3 15
-8 0 -12 -4 -9 -8 2 -4 0 -10 -5 -14 -6 -3 -10 6 -10 22 1 46 -7 68 -26 66
-12 -1 -14 2 -6 10 11 11 45 -9 37 -22 -2 -3 3 -15 11 -26 12 -16 14 -16 10
-3 -4 11 1 22 11 28 15 10 15 11 0 6 -10 -3 -23 4 -33 20 -12 19 -13 25 -3 23
28 -3 40 2 35 15 -3 8 -2 17 4 20 5 2 4 3 -3 2 -7 -2 -13 -8 -13 -13 0 -6 -3
-15 -7 -19 -5 -4 -8 2 -8 14 0 20 -10 27 -33 23 -4 -1 -2 8 5 19 7 11 16 20
21 20 4 0 6 -4 3 -8 -2 -4 -1 -14 3 -20 6 -10 11 -9 21 3 11 13 10 14 -6 8
-17 -6 -17 -5 -5 10 7 9 17 15 21 12 5 -3 11 -2 14 3 2 4 -6 8 -19 8 -13 0
-21 -4 -18 -10 3 -5 1 -6 -5 -2 -17 10 -15 15 11 26 14 5 16 9 6 9 -9 1 -16 7
-17 14 -2 17 -9 59 -13 77 -2 8 -11 18 -19 23 -10 5 -7 6 8 3 23 -4 32 17 12
29 -6 4 -7 11 -4 17 5 8 1 9 -12 5 -17 -6 -17 -6 -3 5 9 8 15 23 12 38 -2 19
-1 22 7 10 8 -13 10 -13 10 1 0 24 -11 30 -29 17 -15 -12 -15 -11 -1 7 23 29
20 80 -4 78 -13 -1 -15 2 -7 10 15 15 41 -9 36 -34 -5 -24 0 -24 27 3 14 14
16 19 5 15 -10 -4 -21 3 -32 19 -12 19 -13 25 -3 23 28 -3 40 2 35 15 -3 8 -2
17 4 20 5 2 4 3 -3 2 -7 -2 -13 -8 -13 -13 0 -6 -3 -15 -7 -19 -5 -4 -8 2 -8
14 0 20 -11 27 -34 23 -10 -2 12 29 28 41 6 4 4 13 -4 23 -11 13 -11 18 0 28
7 7 10 8 7 2 -3 -5 7 -11 21 -11 25 -2 25 -1 7 8 -12 5 -27 19 -35 31 -12 20
-12 21 3 9 10 -9 17 -10 22 -2 3 5 3 10 -2 10 -4 0 -19 9 -33 20 -14 12 -18
18 -8 14 13 -4 16 -1 13 15 -6 31 -15 42 -27 35 -7 -4 -8 -2 -4 5 6 8 12 9 20
2 7 -6 15 -8 18 -6 3 3 4 -5 3 -18 -3 -21 0 -24 19 -19 17 5 18 7 4 10 -20 4
-24 17 -8 27 6 3 10 12 9 18 0 9 -2 9 -6 0 -3 -9 -10 -10 -21 -4 -22 12 -590
12 -619 1z m42 -10 c3 -6 -1 -7 -9 -4 -18 7 -21 14 -7 14 6 0 13 -4 16 -10z
m565 -120 c0 -5 -5 -10 -11 -10 -5 0 -7 5 -4 10 3 6 8 10 11 10 2 0 4 -4 4
-10z m0 -54 c0 -3 -4 -8 -10 -11 -5 -3 -10 -1 -10 4 0 6 5 11 10 11 6 0 10 -2
10 -4z m-8 -88 c-7 -7 -12 -8 -12 -2 0 14 12 26 19 19 2 -3 -1 -11 -7 -17z
m-572 -78 c0 -5 -5 -12 -11 -16 -8 -4 -7 -9 2 -16 11 -8 11 -9 -1 -5 -8 2 -15
8 -15 13 0 5 -3 14 -7 19 -4 6 2 11 13 12 10 1 19 -2 19 -7z m580 -220 c0 -5
-2 -10 -4 -10 -3 0 -8 5 -11 10 -3 6 -1 10 4 10 6 0 11 -4 11 -10z m1424 -16
c6 2 8 1 3 -1 -4 -3 -4 -10 -1 -16 5 -9 4 -9 -6 0 -7 6 -19 9 -26 6 -8 -3 -14
-1 -14 4 0 16 13 24 23 14 5 -5 15 -8 21 -7z m86 -7 c0 -7 -4 -6 -10 3 -8 12
-10 12 -10 1 0 -8 -3 -12 -6 -8 -9 9 6 28 17 22 5 -4 9 -12 9 -18z m-143 -3
c0 -6 -9 -9 -19 -6 -10 2 -18 7 -18 11 0 4 8 7 18 7 10 0 19 -5 19 -12z m233
1 c0 -2 -6 -8 -13 -14 -10 -8 -14 -7 -14 2 0 8 6 14 14 14 7 0 13 -1 13 -2z
m-1600 -15 c0 -5 -2 -10 -4 -10 -3 0 -8 5 -11 10 -3 6 -1 10 4 10 6 0 11 -4
11 -10z m1280 0 c0 -5 -2 -10 -4 -10 -3 0 -8 5 -11 10 -3 6 -1 10 4 10 6 0 11
-4 11 -10z m340 0 c0 -5 -5 -10 -11 -10 -5 0 -7 5 -4 10 3 6 8 10 11 10 2 0 4
-4 4 -10z m205 -19 c-3 -6 -11 -11 -17 -11 -6 0 -6 6 2 15 14 17 26 13 15 -4z
m-1808 -6 c0 -18 -24 -28 -33 -13 -4 6 -3 8 3 5 6 -4 13 0 17 8 7 19 13 19 13
0z m1643 5 c0 -5 -2 -10 -4 -10 -3 0 -8 5 -11 10 -3 6 -1 10 4 10 6 0 11 -4
11 -10z m297 -75 c0 -8 -4 -12 -9 -9 -5 3 -6 10 -3 15 9 13 12 11 12 -6z
m-1338 -49 c0 -6 -3 -5 -6 2 -2 6 -12 12 -21 12 -15 0 -15 -2 -2 -10 9 -6 10
-10 3 -10 -19 0 -26 20 -9 26 9 3 13 11 10 18 -3 6 2 2 10 -8 9 -11 16 -25 15
-30z m19 9 c-3 -3 -9 2 -12 12 -6 14 -5 15 5 6 7 -7 10 -15 7 -18z m-646 -7
c-7 -7 -12 -8 -12 -2 0 6 3 14 7 17 3 4 9 5 12 2 2 -3 -1 -11 -7 -17z m488
-32 c0 -3 -4 -8 -10 -11 -5 -3 -10 -1 -10 4 0 6 5 11 10 11 6 0 10 -2 10 -4z
m1700 0 c0 -2 -7 -7 -16 -10 -8 -3 -12 -2 -9 4 6 10 25 14 25 6z m30 -6 c0 -5
-2 -10 -4 -10 -3 0 -8 5 -11 10 -3 6 -1 10 4 10 6 0 11 -4 11 -10z m-1760 -12
c0 -4 -5 -8 -11 -8 -5 0 -7 -4 -4 -10 3 -5 4 -10 1 -10 -3 0 -10 8 -15 18 -7
14 -6 18 10 18 10 0 19 -4 19 -8z m1890 -40 c0 -5 -5 -8 -11 -8 -5 0 -8 4 -5
9 3 5 -1 14 -9 21 -8 7 -15 18 -15 24 0 12 39 -34 40 -46z m23 7 c4 -8 3 -16
-1 -19 -4 -3 -9 4 -9 15 -2 23 3 25 10 4z m-2363 -15 c0 -5 -2 -10 -4 -10 -3
0 -8 5 -11 10 -3 6 -1 10 4 10 6 0 11 -4 11 -10z m2351 -27 c13 -16 12 -17 -3
-4 -17 13 -22 21 -14 21 2 0 10 -8 17 -17z m70 0 c10 -12 11 -15 1 -9 -7 4
-20 2 -29 -6 -15 -12 -15 -11 -2 10 17 26 13 26 30 5z m-2421 -13 c0 -5 -2
-10 -4 -10 -3 0 -8 5 -11 10 -3 6 -1 10 4 10 6 0 11 -4 11 -10z m2523 -57 c-4
-9 -10 -10 -24 -2 -24 13 -24 14 5 14 14 0 22 -5 19 -12z m-3686 -90 c0 -9 -4
-10 -14 -2 -7 6 -13 12 -13 14 0 1 6 2 13 2 8 0 14 -6 14 -14z m1178 -12 c3
-5 2 -12 -3 -15 -5 -3 -9 1 -9 9 0 17 3 19 12 6z m-1088 -107 c-3 -4 4 -15 16
-25 12 -10 18 -18 14 -19 -5 0 -15 7 -24 15 -8 8 -20 12 -26 8 -7 -4 -6 1 2
10 7 9 16 17 19 17 3 0 3 -3 -1 -6z m3858 -32 c-11 -9 -15 -11 -8 -3 6 7 9 21
6 30 -5 13 -3 14 8 3 11 -10 10 -15 -6 -30z m35 -2 c0 -5 -5 -10 -11 -10 -5 0
-7 5 -4 10 3 6 8 10 11 10 2 0 4 -4 4 -10z m-3890 -4 c0 -2 -7 -7 -16 -10 -8
-3 -12 -2 -9 4 6 10 25 14 25 6z m24 -66 c-6 -6 -10 -3 -10 10 0 13 4 16 10
10 7 -7 7 -13 0 -20z m3926 16 c0 -2 -7 -6 -15 -10 -8 -3 -15 -1 -15 4 0 6 7
10 15 10 8 0 15 -2 15 -4z m0 -40 c0 -3 -4 -8 -10 -11 -5 -3 -10 -1 -10 4 0 6
5 11 10 11 6 0 10 -2 10 -4z m-3880 -37 c0 -5 -4 -9 -8 -9 -5 0 -9 7 -9 15 0
8 4 12 9 9 4 -3 8 -9 8 -15z m420 11 c0 -5 -5 -12 -11 -16 -8 -4 -7 -9 2 -16
11 -8 11 -9 -1 -5 -8 2 -15 8 -15 13 0 5 -3 14 -7 19 -4 6 2 11 13 12 10 1 19
-2 19 -7z m-385 -40 c3 -5 1 -10 -4 -10 -6 0 -11 5 -11 10 0 6 2 10 4 10 3 0
8 -4 11 -10z m3950 -7 c-1 -11 -9 -17 -20 -15 -10 2 -14 -1 -10 -7 10 -17 -1
-13 -16 6 -8 10 -9 14 -2 10 6 -4 18 -1 25 7 18 20 27 20 23 -1z m-3931 -32
c14 -15 15 -21 4 -27 -7 -4 -10 -4 -6 0 8 10 -14 36 -24 29 -5 -2 -8 1 -8 6 0
17 15 13 34 -8z m-657 -25 c0 -8 -6 -12 -14 -9 -9 4 -11 0 -7 -11 5 -12 2 -15
-11 -9 -17 6 -16 8 5 25 27 22 27 22 27 4z m701 -111 c-3 -3 -9 2 -12 12 -6
14 -5 15 5 6 7 -7 10 -15 7 -18z m335 -50 c4 -8 3 -16 -1 -19 -4 -3 -9 4 -9
15 -2 23 3 25 10 4z m3667 -9 c0 -3 -4 -8 -10 -11 -5 -3 -10 -1 -10 4 0 6 5
11 10 11 6 0 10 -2 10 -4z m-4620 -26 c0 -5 -4 -10 -9 -10 -6 0 -13 5 -16 10
-3 6 1 10 9 10 9 0 16 -4 16 -10z m720 -30 c0 -5 -7 -7 -15 -4 -8 4 -12 10 -9
15 6 11 24 2 24 -11z m3974 -13 c24 -40 30 -62 12 -48 -7 6 -17 7 -22 3 -4 -4
-3 0 4 9 9 13 8 20 -8 37 -21 22 -25 32 -12 32 4 0 16 -15 26 -33z m-40 -3 c3
-8 2 -12 -4 -9 -6 3 -10 10 -10 16 0 14 7 11 14 -7z m-3944 -9 c4 3 10 -2 14
-10 3 -8 0 -17 -6 -21 -6 -4 -8 -3 -5 3 4 6 0 13 -8 17 -8 3 -15 11 -14 18 0
10 2 10 6 0 2 -6 8 -10 13 -7z m2029 8 c-3 -19 2 -33 10 -30 5 1 8 -2 8 -8 -1
-5 -5 -9 -9 -7 -16 5 -7 -8 12 -18 17 -9 19 -8 13 7 -6 16 -5 17 12 3 15 -12
14 -7 -5 19 -13 19 -17 30 -9 25 7 -5 25 -9 39 -9 14 -1 25 -6 25 -12 0 -7 7
-18 15 -25 12 -11 12 -11 0 5 -12 17 -11 18 16 12 24 -4 25 -4 8 4 -25 11 -41
31 -25 31 6 0 11 -4 11 -10 0 -5 9 -10 20 -10 14 0 18 5 14 18 -5 14 -4 14 4
2 6 -8 9 -17 6 -21 -2 -4 3 -10 12 -13 8 -3 12 -2 9 4 -3 6 -1 10 6 10 8 0 7
5 -2 18 -13 15 -12 16 3 3 10 -7 15 -17 12 -22 -3 -5 2 -6 10 -3 9 3 14 9 12
13 -3 4 11 7 29 7 18 0 31 -4 29 -8 -3 -4 0 -8 6 -8 6 0 8 -5 3 -12 -11 -19
-13 -39 -2 -32 5 3 7 9 4 14 -3 5 -1 11 4 15 6 3 8 13 5 23 -5 15 -5 15 6 -1
9 -14 15 -15 33 -5 20 10 21 10 8 -5 -14 -18 -12 -20 13 -11 9 3 14 10 11 14
-3 5 0 12 6 16 8 4 9 3 5 -4 -4 -7 -3 -12 3 -12 5 0 8 -9 6 -20 -3 -14 0 -18
8 -13 7 4 24 8 40 9 25 0 32 -7 28 -29 -1 -4 8 -3 19 3 11 6 20 16 20 23 0 8
-4 7 -10 -3 -5 -8 -12 -11 -17 -7 -11 11 17 26 35 19 10 -3 13 -1 8 6 -4 7 -2
12 3 12 14 0 14 -13 -1 -28 -9 -9 -9 -12 1 -12 7 0 9 -5 6 -10 -4 -6 -1 -9 7
-8 7 2 12 -3 10 -10 -1 -8 2 -11 8 -7 6 3 8 10 6 14 -3 4 4 13 15 19 18 12 19
11 10 -7 -16 -29 -14 -33 11 -25 19 6 21 4 11 -7 -8 -10 -9 -19 -2 -29 9 -13
10 -13 6 0 -2 8 2 23 10 32 13 15 12 16 -11 14 -14 -2 -23 1 -20 6 3 5 12 7
20 4 8 -3 14 -1 14 5 0 6 8 1 18 -11 19 -23 49 -20 36 3 -4 7 -3 8 2 4 5 -5 8
-11 6 -14 -2 -3 5 -11 15 -19 13 -11 14 -14 3 -12 -8 2 -18 8 -22 13 -12 15
-10 -7 2 -25 9 -13 10 -13 10 0 1 12 3 12 14 -3 12 -16 14 -16 20 -2 4 11 2
14 -7 9 -6 -4 -8 -3 -4 2 16 17 58 11 68 -10 9 -18 8 -19 -3 -6 -14 17 -43 26
-34 11 4 -5 3 -11 -1 -14 -5 -2 -2 -2 6 0 18 4 43 -16 35 -29 -4 -6 3 -5 15 1
25 14 28 23 4 15 -14 -4 -15 -3 -5 4 8 5 13 13 13 17 -1 5 6 10 15 11 12 2 14
0 5 -9 -8 -8 -6 -15 11 -25 l23 -13 -25 7 c-14 3 -22 3 -17 -2 8 -8 70 -33 97
-38 9 -2 15 -13 14 -29 -1 -16 3 -24 9 -20 6 4 8 0 4 -9 -8 -23 40 -16 57 7
10 14 15 15 21 5 6 -9 4 -11 -5 -5 -10 6 -12 4 -7 -8 3 -9 1 -19 -5 -23 -7 -5
-8 -2 -3 7 5 8 5 11 1 7 -4 -3 -8 -10 -8 -15 -1 -4 -8 -14 -17 -21 -22 -18 4
-5 41 20 25 17 26 17 24 1 -2 -10 -9 -18 -16 -18 -7 0 -14 -8 -16 -18 -2 -17
-1 -17 14 -3 17 15 45 8 42 -10 -1 -5 4 -10 12 -12 9 -2 8 0 -2 8 -13 10 -13
11 3 6 9 -3 17 0 17 6 0 6 3 9 6 6 8 -9 -15 -50 -25 -44 -4 3 -8 -2 -8 -10 0
-10 4 -11 10 -5 7 7 15 7 23 0 8 -7 14 -7 18 0 4 6 14 7 23 4 10 -4 14 -2 9 5
-3 6 -2 13 3 16 5 4 8 -2 6 -11 -1 -10 9 -28 24 -41 14 -13 20 -21 14 -17 -8
4 -13 0 -13 -9 0 -9 -5 -16 -10 -16 -6 0 -10 6 -9 13 3 24 -1 38 -10 32 -6 -3
-14 3 -20 12 -12 20 -14 13 -5 -11 3 -9 12 -16 19 -16 7 0 12 -8 11 -17 0 -10
6 -19 14 -19 32 -3 35 -4 24 -12 -8 -5 -7 -11 4 -22 14 -13 15 -12 10 2 -4 10
-1 19 8 22 9 3 12 1 9 -4 -3 -6 0 -10 7 -10 9 0 9 -3 -2 -10 -11 -7 -11 -10
-2 -10 7 0 10 -4 7 -10 -3 -5 0 -7 8 -4 8 3 18 0 23 -7 4 -8 3 -10 -4 -5 -7 4
-12 2 -12 -3 0 -6 7 -11 15 -11 8 0 15 6 15 13 0 8 3 7 9 -3 12 -18 4 -33 -12
-23 -7 4 -5 -1 3 -12 14 -17 13 -17 -10 -11 l-25 7 25 -15 c14 -8 24 -17 22
-21 -2 -4 0 -10 4 -13 4 -4 4 -2 0 5 -3 6 -2 14 3 18 6 3 8 12 4 20 -3 8 0 15
7 15 6 0 9 -4 6 -8 -3 -5 3 -21 14 -37 17 -26 17 -61 1 -50 -4 2 -8 -2 -8 -10
0 -10 4 -12 12 -5 7 5 16 6 20 2 5 -4 6 -2 2 3 -3 6 -1 17 4 25 7 11 8 9 6 -9
-2 -14 -9 -27 -15 -29 -7 -2 -12 -8 -12 -13 0 -6 4 -8 9 -5 13 8 29 -16 26
-37 -2 -10 3 -21 10 -23 8 -3 11 -12 9 -19 -3 -7 -2 -15 3 -18 4 -3 8 7 8 23
1 15 -4 27 -10 26 -5 -2 -6 -1 -1 2 4 2 2 8 -5 13 -10 6 -7 8 8 6 12 0 19 -5
17 -9 -3 -4 1 -8 8 -9 9 0 10 -2 1 -5 -8 -4 -9 -13 -4 -27 5 -12 7 -30 5 -40
-1 -9 2 -15 7 -11 5 3 9 -1 9 -8 1 -7 9 -3 20 11 11 13 20 18 20 13 0 -6 -4
-14 -10 -17 -5 -3 -10 -11 -10 -16 0 -6 4 -8 9 -4 5 3 13 1 16 -5 4 -6 1 -9
-6 -8 -7 2 -15 -5 -17 -14 -2 -14 1 -16 15 -12 13 4 14 3 5 -4 -8 -5 -13 -13
-13 -18 1 -5 -3 -9 -8 -9 -5 0 -13 -4 -18 -9 -5 -5 -3 -6 5 -2 7 4 12 2 12 -5
0 -9 3 -9 14 0 10 8 16 9 21 1 4 -6 3 -10 -2 -9 -19 3 -23 -2 -13 -21 9 -16 8
-18 -5 -14 -8 3 -12 11 -8 18 4 6 -2 4 -12 -4 -17 -14 -18 -13 -11 5 5 14 4
17 -4 9 -12 -12 -3 -44 12 -44 5 0 6 6 2 13 -5 8 -3 8 9 -2 9 -7 14 -17 11
-22 -3 -5 0 -18 6 -29 9 -16 8 -18 -5 -14 -8 3 -13 10 -10 14 3 4 -3 14 -13
21 -16 13 -16 13 -2 -5 14 -18 13 -19 -2 -13 -10 3 -20 2 -23 -4 -4 -5 -3 -9
2 -8 20 3 30 -2 30 -16 0 -9 -6 -14 -13 -11 -8 3 -16 1 -19 -5 -4 -5 -3 -9 2
-8 4 1 15 1 23 0 11 -1 11 -4 2 -13 -15 -15 -16 -28 -2 -28 6 0 9 5 8 11 -2 6
4 14 12 16 13 4 13 3 0 -6 -8 -6 -11 -11 -6 -11 5 0 4 -6 -2 -12 -14 -18 -10
-57 8 -68 12 -8 12 -10 1 -10 -8 0 -11 -3 -8 -7 11 -10 -12 -31 -31 -28 -9 1
-11 0 -4 -2 7 -3 9 -9 6 -15 -4 -6 -2 -8 3 -5 6 4 13 0 17 -8 3 -8 2 -15 -3
-15 -4 0 -8 -7 -8 -15 0 -8 3 -15 7 -15 4 0 7 -7 7 -15 0 -8 -4 -12 -8 -9 -4
2 -10 0 -14 -6 -4 -6 -11 -8 -16 -5 -15 10 -10 -7 8 -29 10 -12 4 -9 -13 7
-21 19 -31 23 -31 13 0 -8 3 -13 7 -11 3 2 12 -5 19 -17 7 -11 8 -17 3 -14 -6
3 -13 -1 -16 -10 -4 -9 -9 -14 -13 -11 -3 4 0 13 7 22 8 10 9 15 1 15 -6 0
-11 -5 -11 -11 0 -5 -5 -7 -12 -3 -13 8 -3 -12 20 -38 16 -20 8 -40 -14 -31
-11 4 -12 9 -3 19 7 9 8 14 1 14 -5 0 -12 -6 -15 -14 -7 -17 26 -49 38 -39 4
5 5 2 1 -5 -5 -9 -12 -10 -20 -3 -6 6 -22 9 -34 8 -24 -1 -19 -12 6 -12 10 0
15 -6 13 -15 -2 -8 -3 -23 -3 -32 1 -20 -13 -24 -24 -6 -5 7 -3 8 6 3 9 -5 11
-4 6 4 -4 6 -2 18 4 26 7 8 10 15 7 15 -3 0 -16 -14 -28 -32 -13 -17 -18 -29
-12 -25 16 10 26 -25 11 -35 -7 -5 -26 -6 -43 -4 -16 3 -24 2 -17 -1 6 -2 9
-10 6 -15 -4 -6 -3 -8 2 -5 6 3 15 -3 22 -13 9 -15 9 -18 -1 -15 -16 6 -38
-40 -25 -53 6 -6 5 -13 -3 -17 -7 -5 -10 -4 -5 3 3 6 2 13 -3 16 -14 9 -21
-20 -8 -34 9 -10 9 -11 -3 -4 -22 12 -58 13 -56 0 1 -6 5 -17 10 -25 12 -19
-10 -30 -52 -26 -28 2 -33 0 -21 -9 16 -12 17 -20 5 -53 -6 -20 -10 -21 -28
-12 -15 8 -19 8 -14 0 4 -6 1 -11 -6 -11 -10 0 -10 -2 1 -9 8 -5 11 -16 8 -24
-3 -8 0 -21 6 -28 9 -10 8 -10 -6 1 -10 7 -16 19 -13 27 7 17 -9 17 -27 -2 -8
-8 -18 -11 -21 -7 -4 3 -4 -1 0 -11 6 -17 7 -17 21 0 8 10 12 12 8 6 -3 -7 0
-13 7 -14 9 0 8 -2 -2 -6 -8 -3 -24 -13 -34 -22 -11 -9 -16 -10 -12 -3 4 6 4
12 -1 13 -4 0 -16 2 -25 4 -10 2 -18 -1 -18 -7 0 -6 6 -8 14 -5 11 5 14 -2 13
-28 -2 -25 -5 -31 -14 -23 -9 8 -13 7 -13 -3 -1 -8 -7 -3 -14 10 -11 20 -14
21 -19 7 -4 -10 -12 -14 -18 -10 -8 4 -9 3 -5 -4 4 -7 1 -12 -9 -12 -13 0 -14
-2 -3 -14 13 -14 32 -11 23 4 -10 16 10 18 30 3 14 -11 15 -14 4 -10 -9 3 -22
0 -28 -6 -6 -6 -21 -12 -33 -14 -18 -2 -20 -1 -8 7 11 7 11 10 2 10 -19 0 -26
-28 -12 -45 9 -10 9 -15 1 -15 -6 0 -11 5 -11 11 0 8 -4 8 -12 1 -7 -5 -32 -9
-56 -7 -23 2 -45 -1 -48 -6 -3 -5 1 -6 9 -3 8 3 18 1 22 -5 3 -6 11 -11 16
-11 6 0 8 4 5 9 -7 11 21 8 31 -4 4 -4 3 -5 -4 -1 -6 3 -17 -2 -23 -11 -8 -13
-13 -14 -16 -5 -9 19 -32 14 -39 -8 -4 -11 -11 -18 -16 -15 -5 4 -9 -2 -9 -12
0 -10 -4 -14 -8 -8 -10 14 -32 17 -32 5 0 -5 5 -10 10 -10 6 0 10 -5 10 -11 0
-8 -4 -8 -14 0 -12 10 -17 8 -25 -7 -6 -11 -8 -22 -6 -26 3 -3 2 -3 -2 0 -13
9 -10 28 6 40 11 8 11 13 2 18 -7 5 -15 5 -18 2 -4 -3 0 -6 8 -6 12 0 12 -2 0
-9 -10 -7 -19 -4 -28 7 -13 15 -13 14 -4 -5 13 -26 14 -33 4 -32 -21 3 -26 -2
-13 -12 13 -9 12 -10 -2 -5 -10 3 -18 0 -18 -6 0 -6 -3 -8 -7 -5 -3 4 2 16 12
27 10 11 15 23 12 27 -4 3 -7 1 -7 -6 0 -7 -5 -9 -12 -5 -6 4 -8 3 -4 -4 3 -6
-3 -13 -14 -17 -11 -4 -18 -10 -15 -15 3 -5 -4 -7 -15 -5 -13 3 -20 -2 -21
-13 0 -10 -3 -12 -6 -5 -3 10 -11 9 -34 -2 -16 -9 -32 -15 -35 -14 -4 0 -10
-5 -15 -12 -4 -7 -15 -14 -23 -15 -9 -1 -14 2 -11 6 3 5 -4 8 -15 7 -11 -1
-20 -5 -20 -10 0 -5 -7 -6 -15 -3 -9 3 -18 -1 -22 -10 -5 -14 -8 -13 -18 6 -7
13 -10 31 -7 42 2 10 -1 18 -7 18 -5 0 -8 -6 -5 -14 8 -21 -14 -30 -34 -14
-15 11 -15 11 -5 -3 7 -9 9 -19 5 -24 -4 -4 4 -2 18 5 14 7 22 9 18 5 -4 -5
-2 -15 5 -24 10 -14 10 -14 -5 -3 -18 14 -43 7 -33 -9 4 -5 1 -9 -5 -9 -7 0
-10 6 -7 13 7 19 -6 37 -32 42 -12 2 -19 1 -17 -4 12 -18 -16 -36 -58 -36 -25
-1 -42 3 -40 7 3 5 11 5 17 1 7 -4 6 0 -2 10 -7 9 -19 17 -25 17 -6 0 -4 -5 4
-10 23 -16 -29 -7 -59 9 -16 9 -26 10 -33 3 -6 -6 -17 -8 -24 -5 -8 3 -14 0
-14 -5 0 -6 9 -9 20 -7 13 3 18 0 14 -7 -4 -7 -2 -8 5 -4 6 4 9 12 6 17 -4 5
-1 9 4 9 6 0 11 -6 11 -14 0 -17 -33 -31 -38 -16 -3 7 -9 7 -20 -2 -10 -9 -13
-9 -9 -1 5 7 1 12 -10 12 -32 -1 -57 8 -61 19 -2 7 1 12 8 12 6 0 9 -4 6 -9
-4 -5 2 -8 11 -7 10 2 20 -1 23 -5 3 -5 11 1 18 11 7 12 8 20 2 20 -5 0 -10
-5 -10 -11 0 -8 -4 -8 -12 -2 -7 6 -23 9 -36 8 -15 -1 -21 3 -18 11 3 7 1 16
-4 19 -9 6 -6 -30 5 -57 4 -11 3 -18 -5 -18 -6 0 -9 4 -6 9 3 5 -1 14 -9 21
-7 6 -11 19 -8 28 3 12 2 13 -4 5 -5 -7 -19 -11 -31 -8 -12 2 -24 0 -27 -5 -3
-5 4 -7 15 -5 11 2 20 0 20 -6 0 -5 5 -8 11 -7 6 2 14 -3 16 -9 6 -15 -13 -17
-22 -3 -3 5 -11 10 -17 10 -6 0 -5 -7 3 -17 8 -10 0 -6 -17 8 -21 17 -42 25
-62 24 -22 -1 -29 2 -25 12 3 8 0 12 -8 10 -8 -2 -11 -2 -6 0 4 3 4 10 0 16
-4 7 1 6 10 -2 9 -7 17 -11 17 -8 0 3 3 14 6 24 4 14 4 15 -4 4 -12 -16 -36
-5 -25 12 4 7 -4 5 -17 -4 -14 -9 -33 -15 -43 -13 -12 1 -17 -2 -14 -10 3 -7
-1 -13 -8 -13 -10 0 -11 5 -4 19 6 10 14 16 20 13 5 -4 9 -2 9 4 0 12 -62 3
-70 -10 -3 -5 -11 1 -19 12 -7 12 -8 18 -2 14 16 -9 13 1 -5 20 -12 12 -19 13
-30 4 -11 -9 -14 -8 -14 5 0 18 -11 21 -26 6 -7 -7 -16 -4 -29 10 -10 11 -26
20 -37 20 -10 0 -18 4 -18 9 0 13 34 8 43 -7 5 -7 13 -9 19 -6 6 4 8 3 5 -3
-3 -5 0 -10 8 -10 8 0 15 4 15 9 0 8 -15 11 -25 6 -2 -2 -16 12 -30 31 -14 19
-25 30 -25 25 0 -6 5 -15 12 -22 9 -9 9 -12 1 -12 -7 0 -19 10 -28 23 -8 12
-18 21 -20 20 -15 -8 -26 -1 -21 13 3 8 2 12 -3 9 -5 -3 -17 5 -25 17 -9 12
-16 17 -16 10 0 -7 -5 -10 -10 -7 -8 5 -7 12 2 23 10 14 10 15 -2 5 -18 -16
-34 -17 -24 -1 5 7 3 8 -6 3 -10 -6 -10 -11 4 -20 14 -11 13 -12 -10 -12 -14
0 -22 2 -17 6 15 10 7 51 -13 66 -20 14 -38 10 -28 -6 3 -5 10 -6 16 -3 7 5 8
2 3 -6 -6 -9 -4 -11 5 -5 9 6 11 4 5 -5 -6 -9 -4 -11 5 -5 8 5 11 4 6 -3 -8
-14 -33 -5 -40 14 -3 7 -11 12 -18 10 -7 -1 -10 -1 -5 1 4 3 7 11 7 19 0 8 5
14 10 14 6 0 10 6 10 13 -1 6 -10 1 -20 -12 -19 -22 -20 -22 -20 -3 0 11 3 22
8 25 4 2 2 3 -4 1 -7 -1 -21 6 -33 17 -12 11 -21 17 -21 14 0 -3 -5 -3 -10 0
-8 5 -7 12 1 22 11 12 14 11 24 -7 11 -21 12 -21 19 -4 4 10 4 15 0 11 -4 -4
-12 0 -18 9 -10 13 -14 12 -36 -8 -17 -16 -22 -18 -17 -5 3 9 2 19 -3 22 -18
11 -11 35 8 29 14 -5 14 -4 3 4 -10 7 -21 7 -32 1 -29 -15 -33 -10 -8 11 25
20 23 22 -26 24 -27 1 -30 4 -30 34 1 26 -2 31 -17 26 -16 -5 -20 1 -17 22 0
3 -7 16 -15 30 -9 13 -13 24 -10 24 4 0 -1 10 -12 23 l-19 22 23 -19 c17 -15
22 -16 23 -5 0 8 2 24 5 36 5 29 -22 56 -49 47 -17 -5 -18 -4 -6 9 8 8 19 13
25 10 7 -2 15 1 20 8 5 8 2 11 -7 7 -8 -3 -24 1 -34 9 -19 15 -19 15 2 9 18
-6 22 -3 20 13 -1 15 -4 17 -14 9 -9 -7 -18 -7 -30 3 -15 12 -16 12 -10 -3 9
-25 0 -22 -14 3 -7 13 -7 19 -1 15 6 -3 14 -1 18 5 8 13 -16 30 -30 22 -5 -4
-6 -1 0 8 5 8 9 16 10 19 4 23 18 38 30 33 8 -3 14 0 14 7 0 6 -4 9 -9 5 -6
-3 -15 5 -22 17 -9 19 -9 21 1 11 15 -14 50 0 50 20 0 7 -4 6 -10 -3 -5 -8
-10 -10 -10 -5 0 6 -4 4 -9 -4 -7 -11 -10 -9 -16 8 -4 13 -11 18 -18 14 -8 -5
-8 -2 0 9 7 8 11 17 8 19 -2 3 4 5 14 5 11 0 17 -6 14 -13 -3 -7 -10 -10 -16
-6 -6 3 -7 1 -3 -5 4 -6 13 -9 21 -6 8 4 12 10 9 15 -3 5 2 12 11 15 13 5 14
9 4 15 -7 4 -19 3 -25 -2 -17 -14 -29 8 -14 26 10 12 10 19 -1 33 -12 15 -12
16 2 5 13 -10 19 -10 35 3 10 8 14 13 8 10 -7 -3 -15 1 -18 10 -4 12 -2 15 9
10 8 -3 15 -1 15 5 0 6 4 8 9 5 11 -7 8 20 -2 31 -5 4 1 14 13 23 20 15 20 16
1 16 -11 0 -17 -5 -14 -11 3 -5 0 -4 -8 3 -15 14 -33 17 -25 4 3 -5 -1 -9 -9
-9 -11 0 -12 4 -4 14 6 7 22 11 35 9 13 -3 27 0 30 6 4 7 2 8 -4 4 -7 -4 -12
-1 -12 9 0 9 4 13 10 10 6 -4 7 1 3 11 -5 13 -3 15 8 9 12 -7 12 -6 1 7 -9 11
-10 18 -3 23 7 4 6 16 -4 36 -9 16 -20 27 -25 24 -5 -3 -11 -1 -14 4 -9 14 19
7 40 -9 16 -14 16 -13 5 8 -6 12 -9 28 -5 34 5 7 7 26 7 43 -1 19 1 23 4 10 3
-11 10 -23 17 -27 8 -6 8 -8 0 -8 -7 0 -14 -7 -17 -14 -4 -10 -1 -13 9 -9 13
5 18 16 16 34 -1 4 8 15 18 24 11 10 20 25 20 34 0 14 2 14 10 1 8 -13 10 -12
10 3 0 26 -18 20 -35 -12 -8 -17 -20 -33 -26 -37 -8 -5 -8 -1 0 13 6 11 7 24
3 28 -4 5 -1 5 6 1 7 -4 12 -1 12 9 0 10 -5 13 -12 9 -7 -4 -8 -3 -4 4 4 6 14
8 23 5 10 -4 14 -2 10 4 -4 7 4 10 23 8 16 -1 27 1 24 6 -3 5 -9 7 -14 4 -5
-3 -8 3 -8 12 0 10 -1 24 -3 32 -2 7 2 16 9 18 6 3 12 0 12 -7 0 -6 -5 -8 -12
-4 -8 5 -8 1 2 -12 8 -10 15 -20 16 -22 1 -2 1 12 1 31 -1 24 -5 33 -14 30 -7
-3 3 12 22 33 30 33 36 36 52 23 11 -9 14 -10 9 -1 -4 7 -2 12 6 13 10 0 10 2
1 6 -7 2 -13 9 -13 14 0 6 4 8 10 4 5 -3 8 7 5 25 -2 17 0 28 6 25 8 -6 13 9
10 28 -1 5 2 6 7 3 12 -7 54 23 47 34 -3 5 -13 7 -23 4 -14 -5 -14 -4 -3 4 10
7 20 7 32 -1 16 -10 15 -12 -9 -31 -37 -27 -51 -41 -32 -32 8 4 4 -1 -10 -12
-14 -12 -21 -24 -17 -28 4 -4 7 -2 7 4 0 7 7 12 15 12 8 0 15 5 15 11 0 5 4 8
9 5 5 -3 8 2 7 12 0 9 5 16 12 14 8 -1 11 2 8 7 -3 5 1 12 10 15 8 3 13 10 9
15 -3 5 -1 12 5 16 5 3 10 1 10 -4 0 -6 5 -11 11 -11 8 0 7 5 -1 15 -8 9 -21
13 -34 10 -21 -6 -21 -6 -1 6 11 7 29 22 39 33 14 16 18 17 13 4 -10 -28 34
-12 61 22 13 17 27 28 31 26 4 -3 8 1 8 9 0 13 -3 13 -17 0 -9 -8 -20 -12 -25
-8 -4 5 -5 2 0 -6 6 -10 4 -12 -5 -6 -9 6 -11 4 -5 -6 5 -8 4 -11 0 -6 -5 4
-15 -3 -22 -15 -9 -18 -12 -19 -13 -6 0 9 5 20 10 23 6 4 7 11 4 17 -4 6 -2 8
4 4 6 -3 13 -2 17 4 4 6 10 8 15 5 4 -3 13 2 20 10 7 8 17 12 23 8 7 -4 8 0 3
12 -5 15 -4 16 9 5 9 -8 15 -8 15 -2 0 6 -4 14 -10 17 -5 3 -10 11 -10 18 0 6
8 0 17 -13 10 -14 17 -29 15 -33 -1 -5 2 -6 8 -2 7 4 7 12 0 26 -8 13 -7 19 0
19 6 0 8 5 5 10 -4 6 -11 7 -17 4 -6 -4 -8 -2 -4 4 3 6 18 9 32 6 18 -3 23 -1
18 7 -4 8 -3 9 5 5 6 -4 9 -12 6 -17 -4 -5 -1 -9 6 -9 6 0 9 8 6 20 -3 11 -1
18 3 15 5 -3 13 3 19 12 5 10 13 14 17 10 4 -4 -1 -14 -12 -22 -10 -8 -14 -15
-7 -15 6 0 15 5 19 11 4 8 9 8 17 0 16 -16 27 -14 27 5 0 9 5 12 13 8 9 -6 9
-5 0 8 -7 8 -9 18 -5 22 4 4 1 6 -7 4 -7 -1 -16 4 -18 12 -4 13 -3 13 6 0 10
-13 11 -13 11 0 1 9 6 5 15 -10 12 -21 14 -22 12 -5 -1 11 -7 26 -11 34 -7 11
-6 12 5 5 20 -12 39 -14 39 -3 0 6 5 7 11 3 8 -4 7 -9 -2 -15 -7 -4 -17 -5
-23 -2 -5 4 -6 1 -1 -7 5 -9 4 -11 -3 -6 -8 5 -10 1 -5 -10 5 -15 7 -15 15 0
5 9 13 14 17 12 4 -3 13 4 20 16 7 11 8 17 2 13 -6 -3 -11 -1 -11 5 0 13 46 5
68 -12 15 -12 16 -11 3 5 -9 12 -10 17 -2 17 7 0 10 4 6 9 -3 5 0 13 6 17 8 5
9 3 4 -6 -5 -9 -2 -10 13 -6 12 4 23 2 28 -5 4 -8 3 -9 -4 -5 -19 11 -43 -7
-32 -24 8 -13 10 -12 10 3 0 9 5 17 11 17 6 0 8 -8 5 -17 -6 -17 -5 -17 7 -1
8 10 18 14 22 10 5 -4 5 -1 1 6 -11 18 5 15 21 -5 12 -16 12 -14 2 9 -10 22
-15 25 -26 17 -9 -9 -13 -8 -13 0 0 6 5 11 11 11 5 0 7 6 3 13 -6 9 -4 9 8 -1
10 -8 19 -9 22 -3 3 5 1 11 -6 13 -8 3 -8 9 1 24 10 14 11 15 7 2 -9 -29 14
-31 38 -5 l24 25 0 -24 c0 -18 -5 -24 -15 -20 -9 4 -12 1 -7 -7 4 -6 4 -9 -1
-5 -11 11 -47 -11 -39 -24 5 -7 12 -5 21 7 7 11 13 16 13 12 0 -4 9 -3 20 3
15 8 20 8 20 -2 0 -9 3 -9 10 2 5 9 5 19 -2 27 -6 8 -8 16 -4 20 3 3 6 1 6 -5
0 -7 9 -12 20 -12 17 0 19 3 11 19 -6 10 -7 21 -4 25 8 8 13 8 12 -1z m-1803
-12 c-4 -5 -1 -11 6 -13 8 -3 7 -6 -3 -10 -10 -4 -15 1 -16 13 -1 10 3 19 8
19 6 0 8 -4 5 -9z m2224 -11 c-6 -11 -13 -20 -16 -20 -2 0 0 9 6 20 6 11 13
20 16 20 2 0 0 -9 -6 -20z m71 -3 c-17 -17 -60 -17 -54 0 6 16 19 17 28 3 4
-6 11 -8 16 -4 5 3 6 10 3 16 -5 7 -2 8 5 3 9 -5 10 -10 2 -18z m82 -20 c7 4
6 -1 -2 -10 -16 -20 -33 -13 -24 10 4 11 8 13 11 5 2 -7 9 -9 15 -5z m1378
-30 c-10 -9 -11 -8 -5 6 3 10 9 15 12 12 3 -3 0 -11 -7 -18z m-3923 -31 c10
-22 9 -24 -10 -21 -11 3 -23 7 -27 11 -3 4 2 4 12 1 13 -5 17 -3 14 5 -2 7
-13 12 -23 10 -16 -2 -17 -1 -4 7 22 15 26 14 38 -13z m1732 14 c0 -5 -5 -10
-11 -10 -5 0 -7 5 -4 10 3 6 8 10 11 10 2 0 4 -4 4 -10z m1020 6 c0 -2 -7 -7
-16 -10 -8 -3 -12 -2 -9 4 6 10 25 14 25 6z m-3440 -16 c0 -5 -5 -10 -11 -10
-5 0 -7 5 -4 10 3 6 8 10 11 10 2 0 4 -4 4 -10z m2340 -6 c0 -8 -19 -13 -24
-6 -3 5 1 9 9 9 8 0 15 -2 15 -3z m2334 -45 c-3 -5 -10 -7 -15 -3 -5 3 -7 10
-3 15 3 5 10 7 15 3 5 -3 7 -10 3 -15z m-3819 -19 c-3 -5 3 -13 12 -19 16 -9
13 -11 -12 -11 -3 0 -5 3 -6 8 -1 4 -5 15 -10 24 -7 14 -6 16 6 12 8 -3 13
-10 10 -14z m2710 0 c10 -11 16 -20 13 -20 -3 0 -13 9 -23 20 -10 11 -16 20
-13 20 3 0 13 -9 23 -20z m-1293 -18 c-7 -2 -9 -9 -5 -15 3 -7 2 -8 -2 -4 -16
14 -14 36 3 29 10 -4 12 -7 4 -10z m2415 2 c-3 -3 -12 -4 -19 -1 -8 3 -5 6 6
6 11 1 17 -2 13 -5z m-4614 -74 c-3 -3 -8 1 -10 8 -3 6 -9 10 -14 7 -5 -4 -6
1 -3 10 6 14 8 14 19 -2 8 -10 11 -20 8 -23z m3561 32 c-9 -5 -8 -11 2 -20 14
-13 19 -5 15 21 -1 5 3 6 9 2 7 -4 7 -12 0 -26 -13 -24 -22 -24 -37 0 -12 19
-8 31 11 31 7 0 7 -3 0 -8z m1091 -30 c-3 -3 -11 0 -18 7 -9 10 -8 11 6 5 10
-3 15 -9 12 -12z m-4642 -27 c4 -8 3 -16 -1 -19 -4 -3 -9 4 -9 15 -2 23 3 25
10 4z m677 -26 c0 -5 -4 -9 -8 -9 -5 0 -9 7 -9 15 0 8 4 12 9 9 4 -3 8 -9 8
-15z m3000 -1 c0 -4 -4 -8 -9 -8 -6 0 -12 4 -15 8 -3 5 1 9 9 9 8 0 15 -4 15
-9z m-2916 -20 c-3 -4 -9 -8 -15 -8 -5 0 -9 4 -9 8 0 5 7 9 15 9 8 0 12 -4 9
-9z m2966 -18 c0 -5 -7 -10 -16 -10 -9 0 -12 -5 -8 -12 5 -7 3 -8 -6 -3 -10 6
-9 11 5 22 22 16 25 16 25 3z m957 -14 c0 -8 -6 -12 -15 -9 -11 5 -11 7 0 14
7 5 13 9 14 9 0 0 1 -6 1 -14z m-4614 -13 c-20 -7 -15 -23 5 -16 14 5 13 3 -3
-10 -17 -14 -17 -16 -4 -17 9 0 20 -8 24 -17 5 -14 3 -15 -6 -6 -6 6 -17 9
-24 6 -9 -3 -12 2 -11 14 2 10 0 25 -5 33 -5 12 -2 16 14 17 12 0 16 -1 10 -4z
m3737 -73 c0 -5 -2 -10 -4 -10 -3 0 -8 5 -11 10 -3 6 -1 10 4 10 6 0 11 -4 11
-10z m-3696 -19 c19 -7 19 -8 -2 -13 -12 -4 -20 -2 -17 2 3 5 -1 11 -7 13 -7
3 -8 5 -3 6 6 0 19 -4 29 -8z m3766 -23 c0 -4 -7 -8 -15 -8 -8 0 -15 4 -15 8
0 5 7 9 15 9 8 0 15 -4 15 -9z m-2143 -55 c-4 -3 -1 -13 6 -22 11 -14 10 -14
-5 -2 -16 12 -16 31 -1 31 4 0 3 -3 0 -7z m3023 -7 c0 -2 -7 -9 -15 -16 -13
-11 -14 -10 -9 4 5 14 24 23 24 12z m-811 -20 c9 -11 9 -16 -1 -22 -7 -4 -10
-4 -6 1 4 4 3 14 -3 22 -6 7 -9 13 -6 13 2 0 10 -6 16 -14z m37 -121 c9 -8 11
-15 6 -15 -5 0 -15 7 -22 15 -7 8 -9 15 -6 15 4 0 14 -7 22 -15z m-2331 -4 c3
-5 0 -13 -6 -17 -7 -4 -9 -3 -5 4 3 5 0 13 -6 15 -9 4 -10 6 -1 6 6 1 14 -3
18 -8z m2401 -66 c1 -9 -4 -11 -14 -7 -10 4 -12 7 -4 10 7 2 9 9 5 15 -3 7 -2
8 2 4 5 -4 10 -14 11 -22z m2 -37 c-6 -16 -21 -14 -24 4 -1 11 3 15 12 11 8
-3 13 -10 12 -15z m-3742 -32 c1 -7 -7 -12 -20 -11 -11 1 -19 6 -16 11 3 5 11
7 19 6 8 -2 10 1 5 10 -4 7 -3 9 1 5 5 -4 10 -13 11 -21z m1244 4 c0 -5 -2
-10 -4 -10 -3 0 -8 5 -11 10 -3 6 -1 10 4 10 6 0 11 -4 11 -10z m-5 -100 c-3
-4 1 -10 7 -12 8 -3 3 -10 -12 -18 -21 -11 -23 -11 -14 1 6 8 10 22 9 32 -2 9
1 15 6 11 5 -3 7 -9 4 -14z m-2191 -42 c-2 -3 -13 -6 -24 -5 -24 2 -18 13 9
13 11 0 18 -4 15 -8z m86 8 c0 -2 -9 -6 -20 -9 -11 -3 -18 -1 -14 4 5 9 34 13
34 5z m947 -12 c-3 -3 -12 -4 -19 -1 -8 3 -5 6 6 6 11 1 17 -2 13 -5z m1153
-9 c-7 -8 -18 -15 -24 -15 -6 0 -2 7 8 15 25 19 32 19 16 0z m-1177 -21 c-6
-16 -16 -11 -19 11 -1 8 4 11 11 8 8 -2 11 -11 8 -19z m62 -34 c-3 -5 -12 -10
-18 -10 -7 0 -6 4 3 10 19 12 23 12 15 0z m3645 -31 c0 -5 -4 -9 -8 -9 -5 0
-9 7 -9 15 0 8 4 12 9 9 4 -3 8 -9 8 -15z m-2543 4 c-4 -3 -2 -12 4 -20 13
-15 13 -15 -18 -18 -22 -2 -22 4 0 33 5 6 12 12 15 12 3 0 2 -3 -1 -7z m-2230
-25 c-3 -8 -6 -5 -6 6 -1 11 2 17 5 13 3 -3 4 -12 1 -19z m1153 0 c0 -5 -5 -6
-12 -2 -8 5 -9 2 -5 -10 5 -14 3 -15 -13 -6 -32 17 -32 29 0 28 16 -1 30 -5
30 -10z m-764 -20 c3 -4 -1 -5 -10 -4 -8 1 -18 5 -22 8 -3 4 1 5 10 4 8 -1 18
-5 22 -8z m4398 -14 c3 -8 2 -12 -4 -9 -6 3 -10 10 -10 16 0 14 7 11 14 -7z
m-2589 -11 c5 -14 4 -15 -6 -6 -10 10 -17 9 -33 -5 -21 -17 -21 -17 -2 6 23
27 32 28 41 5z m-2235 -13 c13 -8 13 -10 -2 -10 -9 0 -20 5 -23 10 -8 13 5 13
25 0z m530 0 c0 -5 -5 -10 -11 -10 -5 0 -7 5 -4 10 3 6 8 10 11 10 2 0 4 -4 4
-10z m5069 -17 c-13 -16 -25 -30 -26 -32 -2 -2 -3 0 -3 5 0 12 37 54 47 54 4
0 -4 -12 -18 -27z m-4993 -18 c0 -28 -8 -24 -13 5 -2 11 1 20 5 20 4 0 8 -11
8 -25z m599 7 c-3 -3 -11 0 -18 7 -9 10 -8 11 6 5 10 -3 15 -9 12 -12z m3605
8 c0 -5 -2 -10 -4 -10 -3 0 -8 5 -11 10 -3 6 -1 10 4 10 6 0 11 -4 11 -10z
m-4120 -25 c11 -13 10 -15 -6 -9 -18 5 -18 5 -1 -9 16 -13 16 -15 2 -21 -9 -3
-13 -2 -10 3 3 5 1 12 -5 16 -5 3 -10 1 -10 -6 0 -7 -3 -10 -6 -7 -4 5 16 48
22 48 1 0 7 -7 14 -15z m-56 -11 c3 -8 2 -12 -4 -9 -6 3 -10 10 -10 16 0 14 7
11 14 -7z m1560 -2 c3 -5 -1 -9 -9 -9 -8 0 -12 4 -9 9 3 4 7 8 9 8 2 0 6 -4 9
-8z m-1429 -32 c-1 -11 -5 -23 -9 -27 -4 -5 -7 -3 -6 2 1 6 2 19 1 30 -1 17
-3 18 -11 5 -5 -8 -10 -10 -10 -4 0 16 10 23 24 18 7 -3 12 -14 11 -24z m-804
-23 c-10 -9 -11 -8 -5 6 3 10 9 15 12 12 3 -3 0 -11 -7 -18z m4853 11 c-3 -4
-9 -8 -15 -8 -5 0 -9 4 -9 8 0 5 7 9 15 9 8 0 12 -4 9 -9z m-3507 -63 c0 -8
-4 -12 -9 -9 -5 3 -6 10 -3 15 9 13 12 11 12 -6z m886 -20 c-9 -16 -10 -16
-16 -1 -5 12 -3 15 5 10 8 -5 9 -1 4 12 -5 14 -4 16 4 7 8 -7 9 -17 3 -28z
m-1326 10 c0 -8 -4 -12 -9 -9 -5 3 -6 10 -3 15 9 13 12 11 12 -6z m-988 -55
c-7 -5 -13 -17 -14 -27 0 -10 -4 -24 -9 -31 -8 -13 4 -16 20 -4 5 4 1 -1 -9
-10 -24 -23 -30 -22 -52 2 -16 18 -16 20 -1 26 9 3 16 11 16 17 0 19 31 46 47
40 11 -4 12 -8 2 -13z m1502 -103 c-10 -9 -11 -8 -5 6 3 10 9 15 12 12 3 -3 0
-11 -7 -18z m859 -9 c0 -6 -6 -5 -15 2 -8 7 -15 14 -15 16 0 2 7 1 15 -2 8 -4
15 -11 15 -16z m-2306 -23 c-4 -8 -11 -12 -16 -9 -6 4 -5 10 3 15 19 12 19 11
13 -6z m1450 7 c2 -4 -5 -9 -17 -9 -17 -2 -19 0 -7 7 18 12 18 12 24 2z m4220
-4 c-3 -4 -9 -8 -15 -8 -5 0 -9 4 -9 8 0 5 7 9 15 9 8 0 12 -4 9 -9z m-3317
-49 c-1 -22 -10 -24 -24 -6 -8 11 -9 20 -4 43 3 15 30 -19 28 -37z m-2127 -49
c-10 -6 -11 -10 -2 -10 6 0 12 -5 12 -11 0 -8 -5 -8 -15 1 -16 13 -11 30 8 30
7 0 6 -4 -3 -10z m4505 0 c3 -5 1 -10 -4 -10 -6 0 -11 5 -11 10 0 6 2 10 4 10
3 0 8 -4 11 -10z m-4460 -10 c3 -6 -1 -7 -9 -4 -18 7 -21 14 -7 14 6 0 13 -4
16 -10z m5370 -10 c-3 -5 -12 -10 -18 -10 -7 0 -6 4 3 10 19 12 23 12 15 0z
m-5295 -50 c-10 -6 -9 -9 0 -15 7 -4 16 -1 21 6 7 11 9 11 9 1 0 -7 5 -10 10
-7 6 3 10 2 10 -3 0 -18 -27 -21 -48 -6 -21 14 -20 50 0 38 6 -4 6 -9 -2 -14z
m127 -36 c-3 -3 -12 -4 -19 -1 -8 3 -5 6 6 6 11 1 17 -2 13 -5z m4154 -28 c5
3 9 0 9 -6 0 -7 -7 -9 -16 -6 -9 3 -18 6 -20 6 -3 0 -2 5 2 12 6 9 9 9 12 0 2
-7 8 -10 13 -6z m-2166 -26 c-3 -5 -11 -10 -16 -10 -6 0 -7 5 -4 10 3 6 11 10
16 10 6 0 7 -4 4 -10z m-1945 -20 c0 -5 -2 -10 -4 -10 -3 0 -8 5 -11 10 -3 6
-1 10 4 10 6 0 11 -4 11 -10z m82 -16 c7 0 20 5 28 10 13 10 13 9 1 -6 -12
-16 -11 -18 3 -18 9 0 16 5 16 12 0 6 3 8 6 5 11 -10 -17 -38 -30 -30 -6 4
-17 8 -25 10 -15 2 -31 22 -31 38 0 6 5 3 10 -5 5 -8 15 -15 22 -16z m3966 -5
c-10 -7 -10 -9 0 -9 6 0 12 -5 12 -12 0 -9 -3 -9 -12 0 -18 18 -19 42 -1 35
12 -5 12 -7 1 -14z m42 7 c0 -3 -4 -8 -10 -11 -5 -3 -10 -1 -10 4 0 6 5 11 10
11 6 0 10 -2 10 -4z m-59 -59 c-10 -9 -11 -8 -5 6 3 10 9 15 12 12 3 -3 0 -11
-7 -18z m-3780 -30 c-10 -9 -11 -8 -5 6 3 10 9 15 12 12 3 -3 0 -11 -7 -18z
m3747 -2 c-3 -3 -9 2 -12 12 -6 14 -5 15 5 6 7 -7 10 -15 7 -18z m32 5 c0 -5
-2 -10 -4 -10 -3 0 -8 5 -11 10 -3 6 -1 10 4 10 6 0 11 -4 11 -10z m-1984 -18
c1 -7 0 -8 -3 -2 -2 5 -9 10 -14 10 -6 0 -7 -5 -3 -12 4 -7 3 -8 -5 -4 -14 9
-4 29 12 23 6 -2 12 -9 13 -15z m-1658 -43 c-10 -7 -10 -9 0 -9 6 0 12 -5 12
-12 0 -6 -9 -3 -20 7 -11 10 -20 15 -20 11 0 -4 -5 -4 -10 -1 -6 4 -8 11 -4
16 3 6 12 5 22 -3 14 -11 15 -10 9 6 -6 16 -5 17 8 6 13 -11 13 -15 3 -21z
m3556 -17 c3 -5 -1 -9 -9 -9 -8 0 -12 4 -9 9 3 4 7 8 9 8 2 0 6 -4 9 -8z
m-3504 -14 c0 -4 -4 -8 -9 -8 -6 0 -12 4 -15 8 -3 5 1 9 9 9 8 0 15 -4 15 -9z
m4615 -26 c0 -9 -4 -23 -9 -30 -4 -6 -4 -18 0 -24 6 -10 5 -10 -8 -1 -8 7 -17
12 -19 10 -2 -1 1 3 8 9 10 8 10 14 0 24 -9 10 -9 11 1 6 7 -4 12 -1 12 8 0 9
4 16 8 16 5 0 8 -8 7 -18z m-4485 2 c0 -8 -19 -13 -24 -6 -3 5 1 9 9 9 8 0 15
-2 15 -3z m22 -32 c-10 -3 -10 -7 0 -20 11 -15 11 -15 -3 -5 -9 7 -18 10 -21
7 -3 -2 -8 2 -11 10 -4 11 -1 13 10 9 11 -4 14 -2 9 5 -5 8 -1 10 10 5 12 -4
14 -8 6 -11z m1634 -7 c7 -10 11 -22 8 -27 -8 -13 -24 1 -18 16 3 8 1 17 -5
21 -6 3 -11 -1 -11 -9 0 -9 -4 -16 -10 -16 -5 0 -7 7 -4 15 5 11 1 14 -12 9
-15 -4 -16 -4 -5 4 19 14 41 9 57 -13z m64 -49 c0 -1 -7 -3 -15 -3 -8 0 -15 5
-15 11 0 6 -5 4 -10 -4 -5 -8 -10 -10 -10 -4 0 18 12 24 31 13 11 -5 19 -11
19 -13z m-1491 -23 c-4 -22 2 -33 14 -27 8 5 8 2 -2 -9 -7 -9 -19 -17 -25 -16
-7 0 -6 2 1 6 9 3 10 10 3 22 -5 10 -6 21 -3 25 8 8 13 8 12 -1z m1536 -33 c3
-5 1 -10 -4 -10 -6 0 -11 5 -11 10 0 6 2 10 4 10 3 0 8 -4 11 -10z m2659 -21
c4 -4 -3 -6 -17 -6 -20 0 -23 2 -14 12 7 7 14 10 17 7 3 -4 9 -10 14 -13z
m-2559 2 c3 -5 1 -12 -5 -16 -5 -3 -10 1 -10 9 0 18 6 21 15 7z m-1467 -29
c11 9 10 4 -3 -13 -11 -15 -24 -24 -30 -21 -5 3 -4 7 2 9 7 3 11 10 9 16 -1 7
-1 8 2 4 2 -4 11 -2 20 5z m1472 -12 c0 -5 -2 -10 -4 -10 -3 0 -8 5 -11 10 -3
6 -1 10 4 10 6 0 11 -4 11 -10z m140 -15 c-7 -9 -15 -13 -17 -11 -7 7 7 26 19
26 6 0 6 -6 -2 -15z m-1500 -59 c0 -3 -4 -8 -10 -11 -5 -3 -10 -1 -10 4 0 6 5
11 10 11 6 0 10 -2 10 -4z m2038 -33 c-6 -8 -13 -11 -17 -8 -3 3 1 10 9 15 11
7 12 10 2 10 -7 0 -10 5 -6 11 4 8 9 7 15 -2 4 -8 3 -19 -3 -26z m-155 12 c12
0 3 -19 -11 -22 -8 -1 -11 1 -8 4 3 4 0 13 -7 21 -10 13 -9 14 3 7 8 -6 18
-10 23 -10z m314 -10 c0 -8 -4 -12 -9 -9 -5 3 -6 10 -3 15 9 13 12 11 12 -6z
m-442 -7 c5 4 5 1 1 -6 -6 -10 -11 -10 -22 -1 -8 6 -14 14 -14 16 0 3 6 0 13
-6 8 -6 18 -7 22 -3z m-1598 -14 c-3 -3 -12 -4 -19 -1 -8 3 -5 6 6 6 11 1 17
-2 13 -5z m3653 2 c0 -2 -7 -7 -16 -10 -8 -3 -12 -2 -9 4 6 10 25 14 25 6z
m-3660 -31 c-7 -9 -15 -13 -19 -10 -3 3 1 10 9 15 21 14 24 12 10 -5z m150
-86 c0 -14 -29 -18 -39 -5 -8 9 -4 12 14 12 14 0 25 -3 25 -7z m3394 -105 c6
-15 4 -15 -11 -3 -10 7 -20 15 -22 16 -2 2 3 3 11 3 9 0 19 -7 22 -16z m-3234
-74 c0 -5 -2 -10 -4 -10 -3 0 -8 5 -11 10 -3 6 -1 10 4 10 6 0 11 -4 11 -10z
m3100 -34 c0 -2 -7 -7 -16 -10 -8 -3 -12 -2 -9 4 6 10 25 14 25 6z m-216 -228
c-3 -4 -9 -8 -15 -8 -5 0 -9 4 -9 8 0 5 7 9 15 9 8 0 12 -4 9 -9z m-39 -18
c-3 -5 -12 -10 -18 -10 -7 0 -6 4 3 10 19 12 23 12 15 0z m-2495 -80 c-12 -8
-12 -10 -1 -10 8 0 12 -3 8 -6 -9 -9 -28 6 -22 17 4 5 12 9 18 9 7 0 6 -4 -3
-10z m2405 -11 c11 -16 1 -19 -13 -3 -7 8 -8 14 -3 14 5 0 13 -5 16 -11z
m-2217 -94 c-3 -3 -9 2 -12 12 -6 14 -5 15 5 6 7 -7 10 -15 7 -18z m2081 -8
c12 -15 12 -17 -3 -11 -9 3 -16 13 -16 22 0 8 1 13 3 11 1 -2 9 -12 16 -22z
m-2119 -3 c0 -8 -4 -12 -10 -9 -5 3 -10 10 -10 16 0 5 5 9 10 9 6 0 10 -7 10
-16z m32 -8 c7 4 8 2 4 -5 -9 -13 -26 -5 -25 12 0 9 2 8 6 -1 2 -6 10 -9 15
-6z m69 -30 c5 3 12 -3 16 -13 12 -33 57 -48 47 -15 -5 14 -4 14 4 2 8 -10 8
-18 1 -27 -9 -10 -16 -9 -35 4 -13 8 -24 22 -24 30 0 8 -5 11 -10 8 -6 -4 -7
-11 -4 -17 4 -5 -5 -2 -20 7 -29 19 -35 30 -11 21 10 -3 15 1 16 12 1 16 2 16
6 -1 2 -9 9 -15 14 -11z m1879 -26 c0 6 5 10 11 8 15 -5 12 -21 -5 -24 -8 -1
-21 5 -28 14 -12 15 -11 16 5 3 12 -10 17 -10 17 -1z m-1750 -35 c-7 -8 -10
-15 -7 -15 3 0 13 -3 21 -6 11 -4 15 -2 13 7 -2 8 -2 11 0 7 3 -5 11 -8 20 -8
10 0 13 -6 8 -22 -6 -23 -6 -23 11 -3 14 16 16 17 11 3 -4 -10 -4 -18 0 -18 3
0 12 8 20 18 12 15 12 14 2 -10 -7 -16 -17 -24 -23 -20 -6 3 -17 7 -24 8 -8 2
-21 9 -30 18 -10 8 -31 22 -47 31 -23 13 -25 16 -8 12 13 -3 26 -1 29 4 3 5 8
9 11 9 3 0 0 -7 -7 -15z m1630 1 c0 -2 -7 -7 -16 -10 -8 -3 -12 -2 -9 4 6 10
25 14 25 6z m-95 -46 c-3 -5 -12 -10 -18 -10 -7 0 -6 4 3 10 19 12 23 12 15 0z
m43 -10 c7 -11 11 -20 9 -20 -2 0 -12 9 -22 20 -10 11 -14 20 -9 20 5 0 15 -9
22 -20z m-1273 -29 c-3 -5 2 -16 10 -25 8 -8 11 -17 7 -20 -11 -6 -33 39 -25
48 10 9 15 7 8 -3z m68 -28 c-7 -2 -19 -2 -25 0 -7 3 -2 5 12 5 14 0 19 -2 13
-5z m930 -16 c8 4 7 1 -1 -9 -15 -19 0 -34 21 -22 9 6 9 4 -1 -8 -8 -10 -24
-15 -40 -13 -15 2 -31 4 -35 4 -5 1 -5 6 -2 11 3 6 -1 10 -10 10 -9 0 -14 -4
-11 -9 3 -5 -1 -11 -9 -14 -12 -5 -12 -2 -3 18 6 13 14 22 19 19 4 -2 13 4 19
13 10 16 10 16 6 -2 -3 -11 -1 -27 5 -35 9 -13 10 -12 5 2 -3 10 -1 20 4 23 5
3 7 13 4 23 -5 15 -4 15 6 -1 6 -10 16 -14 23 -10z m-839 5 c2 -4 -5 -9 -17
-9 -17 -2 -19 0 -7 7 18 12 18 12 24 2z m740 -24 c-3 -4 -11 -8 -17 -7 -9 0
-9 2 0 5 7 3 9 13 6 22 -4 14 -3 14 5 2 6 -8 8 -18 6 -22z m-36 -23 c-3 -3 -9
2 -12 12 -6 14 -5 15 5 6 7 -7 10 -15 7 -18z"/>
<path d="M4098 4132 c-7 -10 -8 -14 -4 -10 5 4 15 0 23 -10 12 -16 13 -16 7 1
-4 10 -3 17 2 15 5 -2 11 1 14 6 9 17 -29 14 -42 -2z"/>
<path d="M3942 4113 c24 -25 38 -32 18 -8 -6 8 -9 18 -7 22 3 5 -3 9 -13 9
-18 0 -18 -2 2 -23z"/>
<path d="M4180 4116 c0 -2 7 -7 16 -10 8 -3 12 -2 9 4 -6 10 -25 14 -25 6z"/>
<path d="M4235 4111 c-3 -5 -2 -12 3 -15 5 -3 9 1 9 9 0 17 -3 19 -12 6z"/>
<path d="M4275 4090 c-3 -6 1 -7 9 -4 18 7 21 14 7 14 -6 0 -13 -4 -16 -10z"/>
<path d="M4369 4073 c-13 -16 -12 -17 4 -4 9 7 17 15 17 17 0 8 -8 3 -21 -13z"/>
<path d="M4524 4048 c9 -14 13 -28 9 -33 -5 -4 -2 -5 5 -1 13 8 2 39 -19 52
-6 3 -4 -5 5 -18z"/>
<path d="M4500 4041 c0 -6 4 -13 10 -16 6 -3 7 1 4 9 -7 18 -14 21 -14 7z"/>
<path d="M3596 4025 c-9 -26 -7 -32 5 -12 6 10 9 21 6 23 -2 3 -7 -2 -11 -11z"/>
<path d="M4713 3951 c1 -14 5 -17 13 -11 6 6 14 7 18 3 10 -10 56 -12 61 -2 3
4 -3 6 -12 5 -10 -2 -21 1 -24 6 -3 5 -17 11 -32 13 -21 4 -25 1 -24 -14z"/>
<path d="M3430 3919 c-22 -18 -22 -19 -3 -10 12 6 25 16 28 21 9 15 3 12 -25
-11z"/>
<path d="M3363 3910 c-2 -23 13 -35 23 -19 5 8 3 9 -6 4 -10 -6 -12 -4 -7 8 3
9 3 18 -1 21 -4 3 -8 -4 -9 -14z"/>
<path d="M3310 3850 c0 -5 5 -10 10 -10 6 0 10 5 10 10 0 6 -4 10 -10 10 -5 0
-10 -4 -10 -10z"/>
<path d="M4915 3811 c-3 -5 -2 -12 3 -15 5 -3 9 1 9 9 0 17 -3 19 -12 6z"/>
<path d="M3174 3758 c-4 -7 -3 -8 4 -4 7 4 12 3 12 -2 0 -5 7 -9 15 -9 20 0
19 4 -4 17 -14 7 -22 7 -27 -2z"/>
<path d="M2997 3547 c-11 -17 -12 -28 -5 -38 8 -11 9 -11 4 3 -6 20 10 34 18
16 3 -7 3 -2 0 11 -5 17 -3 21 6 16 9 -5 11 -4 6 3 -10 16 -11 15 -29 -11z"/>
<path d="M5202 3555 c4 -4 4 -13 -2 -19 -6 -8 -2 -12 13 -13 12 0 16 1 9 4 -6
3 -10 9 -7 13 3 5 0 12 -7 16 -7 4 -10 4 -6 -1z"/>
<path d="M5241 3434 c0 -11 3 -14 6 -6 3 7 2 16 -1 19 -3 4 -6 -2 -5 -13z"/>
<path d="M2910 3328 c0 -4 4 -8 9 -8 6 0 12 4 15 8 3 5 -1 9 -9 9 -8 0 -15 -4
-15 -9z"/>
<path d="M5306 3312 c-3 -5 1 -9 9 -9 8 0 12 4 9 9 -3 4 -7 8 -9 8 -2 0 -6 -4
-9 -8z"/>
<path d="M5330 3278 c0 -9 7 -19 16 -22 15 -6 15 -4 3 11 -7 10 -15 20 -16 22
-2 2 -3 -3 -3 -11z"/>
<path d="M5315 3010 c3 -5 8 -10 11 -10 2 0 4 5 4 10 0 6 -5 10 -11 10 -5 0
-7 -4 -4 -10z"/>
<path d="M2830 2995 c-7 -8 -16 -12 -21 -9 -5 3 -6 -2 -3 -10 3 -9 11 -16 17
-16 6 0 7 3 4 7 -4 3 0 15 10 25 9 10 14 18 11 18 -3 0 -11 -7 -18 -15z"/>
<path d="M2785 2959 c-4 -6 -5 -12 -2 -15 2 -3 7 2 10 11 7 17 1 20 -8 4z"/>
<path d="M5330 2955 c0 -8 4 -15 8 -15 5 0 9 7 9 15 0 8 -4 15 -9 15 -4 0 -8
-7 -8 -15z"/>
<path d="M5310 2876 c0 -8 -6 -17 -12 -19 -10 -4 -10 -6 0 -6 7 -1 11 -5 7
-11 -3 -5 -13 -6 -23 -3 -9 3 -14 3 -11 -1 11 -12 48 -15 55 -4 4 6 0 14 -7
19 -8 5 -9 9 -3 9 6 0 11 7 11 15 0 8 -4 15 -9 15 -4 0 -8 -6 -8 -14z"/>
<path d="M2814 2812 c4 -7 -3 -10 -20 -9 -19 1 -28 -3 -30 -16 -1 -9 2 -15 7
-11 8 5 10 0 13 -33 1 -14 8 -15 31 -7 15 6 21 25 8 23 -19 -3 -33 2 -33 12 0
5 6 7 13 3 6 -4 9 -4 5 1 -4 4 0 13 9 20 13 9 13 14 3 20 -8 5 -11 4 -6 -3z
m-14 -18 c0 -8 -19 -13 -24 -6 -3 5 1 9 9 9 8 0 15 -2 15 -3z"/>
<path d="M5200 2579 c0 -5 5 -7 10 -4 6 3 10 8 10 11 0 2 -4 4 -10 4 -5 0 -10
-5 -10 -11z"/>
<path d="M2867 2545 c3 -8 9 -12 14 -9 12 7 11 11 -5 17 -10 4 -13 1 -9 -8z"/>
<path d="M2855 2517 c8 -13 13 -26 9 -29 -3 -3 0 -9 7 -14 8 -5 10 -3 4 6 -6
9 -2 10 15 5 15 -5 20 -4 16 4 -4 6 -13 11 -21 11 -7 0 -17 9 -20 20 -3 11
-11 20 -16 20 -5 0 -3 -10 6 -23z"/>
<path d="M5144 2515 c-10 -8 -15 -15 -10 -15 5 0 3 -7 -4 -15 -11 -13 -10 -14
2 -10 9 3 20 17 26 31 13 28 12 29 -14 9z"/>
<path d="M2915 2463 c-15 -36 -12 -51 9 -47 11 2 22 7 25 11 4 5 4 7 2 6 -10
-6 -29 20 -24 33 8 20 -3 17 -12 -3z m13 -38 c-3 -3 -9 2 -12 12 -6 14 -5 15
5 6 7 -7 10 -15 7 -18z"/>
<path d="M5110 2449 c0 -5 5 -7 10 -4 6 3 10 8 10 11 0 2 -4 4 -10 4 -5 0 -10
-5 -10 -11z"/>
<path d="M5060 2413 c0 -15 18 -35 23 -27 3 5 -1 15 -9 22 -8 7 -14 9 -14 5z"/>
<path d="M3005 2350 c-4 -6 -11 -7 -17 -4 -7 4 -8 2 -4 -5 6 -9 11 -9 22 0 14
11 18 19 10 19 -3 0 -8 -5 -11 -10z"/>
<path d="M5005 2331 c-3 -5 -2 -12 3 -15 5 -3 9 1 9 9 0 17 -3 19 -12 6z"/>
<path d="M3065 2290 c-3 -6 1 -7 9 -4 18 7 21 14 7 14 -6 0 -13 -4 -16 -10z"/>
<path d="M4891 2237 c2 -1 13 -9 24 -17 19 -14 19 -14 6 3 -7 9 -18 17 -24 17
-6 0 -8 -1 -6 -3z"/>
<path d="M4863 2175 c0 -6 6 -12 12 -12 6 0 12 6 12 12 0 6 -6 12 -12 12 -6 0
-12 -6 -12 -12z"/>
<path d="M4744 2095 c0 -13 3 -22 7 -19 8 4 6 30 -2 38 -3 3 -5 -5 -5 -19z"/>
<path d="M4706 2092 c-3 -5 1 -9 9 -9 8 0 15 4 15 9 0 4 -4 8 -9 8 -6 0 -12
-4 -15 -8z"/>
<path d="M4634 2043 c3 -6 2 -14 -4 -18 -5 -3 -10 0 -10 7 0 8 -5 6 -11 -5 -6
-10 -8 -21 -5 -24 3 -4 6 -1 6 6 0 7 4 10 8 7 4 -2 14 -1 22 4 13 8 13 11 1
22 -9 8 -11 9 -7 1z"/>
<path d="M3420 2030 c0 -5 5 -10 11 -10 5 0 7 5 4 10 -3 6 -8 10 -11 10 -2 0
-4 -4 -4 -10z"/>
<path d="M4575 2010 c3 -5 8 -10 11 -10 2 0 4 5 4 10 0 6 -5 10 -11 10 -5 0
-7 -4 -4 -10z"/>
<path d="M3480 1978 c-10 -21 -10 -21 3 -6 8 10 18 14 22 10 5 -4 5 -1 1 6
-10 17 -14 15 -26 -10z"/>
<path d="M4476 1992 c-3 -5 1 -9 9 -9 8 0 12 4 9 9 -3 4 -7 8 -9 8 -2 0 -6 -4
-9 -8z"/>
<path d="M4360 1943 c9 -19 8 -23 -4 -23 -8 0 -17 -6 -19 -12 -4 -10 -6 -10
-6 0 -1 7 -5 10 -11 7 -5 -3 -10 0 -10 7 0 8 -5 6 -11 -4 -5 -10 -17 -18 -24
-18 -8 0 -15 -5 -15 -11 0 -5 -4 -8 -10 -4 -5 3 -7 12 -3 20 3 8 0 15 -6 15
-6 0 -10 -3 -10 -7 1 -5 0 -10 -1 -13 -1 -3 -3 -13 -5 -23 -3 -15 -1 -16 11
-6 8 6 14 8 14 4 0 -4 6 -2 13 4 8 6 17 8 20 4 4 -3 7 0 7 7 0 10 5 8 19 -4
17 -15 19 -15 25 -1 3 9 10 13 16 10 6 -3 13 1 16 9 3 9 10 14 14 11 5 -3 14
1 22 8 7 8 21 13 30 11 10 -1 22 4 29 12 7 9 8 14 1 14 -6 0 -13 -6 -15 -12
-4 -9 -6 -8 -6 2 -1 13 -2 13 -11 0 -8 -13 -10 -13 -10 0 0 9 -6 6 -16 -9
l-17 -24 -19 24 c-19 23 -19 23 -8 2z m-35 -51 c-3 -3 -11 0 -18 7 -9 10 -8
11 6 5 10 -3 15 -9 12 -12z"/>
<path d="M3674 1933 c4 -17 0 -19 -21 -15 -16 3 -24 1 -20 -5 4 -6 18 -10 32
-10 18 0 24 4 22 18 -2 10 -6 21 -10 25 -3 4 -5 -2 -3 -13z"/>
<path d="M4041 1874 c-1 -17 5 -21 24 -21 16 0 25 5 25 16 0 14 -2 14 -10 1
-9 -13 -10 -13 -10 0 0 13 -2 13 -9 1 -7 -11 -10 -10 -14 5 -4 17 -5 17 -6 -2z"/>
<path d="M397 2746 c-3 -8 -2 -18 3 -21 13 -8 20 9 11 24 -6 10 -10 9 -14 -3z"/>
<path d="M382 2714 c10 -10 20 -16 22 -13 3 3 -5 11 -17 18 -21 13 -21 12 -5
-5z"/>
<path d="M2823 2615 c0 -8 4 -15 9 -15 4 0 8 4 8 9 0 6 -4 12 -8 15 -5 3 -9
-1 -9 -9z"/>
<path d="M3310 919 c0 -5 5 -7 10 -4 6 3 10 8 10 11 0 2 -4 4 -10 4 -5 0 -10
-5 -10 -11z"/>
<path d="M4556 811 c-3 -5 2 -15 12 -22 15 -12 16 -12 5 2 -7 9 -10 19 -6 22
3 4 4 7 0 7 -3 0 -8 -4 -11 -9z"/>
<path d="M2664 5748 c-3 -4 -3 -9 0 -9 17 -4 26 -7 29 -9 7 -5 38 -7 32 -2 -4
4 -12 7 -18 7 -7 1 -11 6 -10 11 2 13 -26 14 -33 2z"/>
<path d="M2695 5690 c3 -5 8 -10 11 -10 2 0 4 5 4 10 0 6 -5 10 -11 10 -5 0
-7 -4 -4 -10z"/>
<path d="M2674 5646 c4 -12 0 -27 -11 -39 -10 -11 -13 -17 -6 -14 6 4 13 2 15
-4 2 -7 9 -5 17 5 12 14 12 16 -4 10 -15 -6 -16 -5 -4 14 11 18 11 24 0 34
-12 11 -13 10 -7 -6z"/>
<path d="M2033 5584 c18 -6 18 -6 0 -27 -18 -21 -18 -21 1 -7 18 14 19 13 13
-3 -4 -11 -3 -16 3 -12 17 10 4 50 -16 52 -17 2 -17 1 -1 -3z"/>
<path d="M2027 5515 c3 -8 9 -12 14 -9 12 7 11 11 -5 17 -10 4 -13 1 -9 -8z"/>
<path d="M2690 5520 c-9 -6 -10 -10 -3 -10 6 0 15 5 18 10 8 12 4 12 -15 0z"/>
<path d="M2677 5449 c-18 -11 -14 -29 6 -29 7 0 6 4 -3 10 -13 8 -13 10 2 10
9 0 20 5 23 10 8 13 -5 12 -28 -1z"/>
<path d="M2675 5393 c-14 -33 -13 -42 3 -36 13 3 13 1 -2 -11 -17 -14 -18 -16
-3 -16 16 0 22 13 17 35 -2 6 -2 18 -2 28 0 9 -1 17 -3 17 -1 0 -6 -8 -10 -17z"/>
<path d="M2035 5393 c3 -3 0 -11 -5 -18 -7 -8 -5 -12 4 -12 14 0 16 22 3 32
-4 3 -5 2 -2 -2z"/>
<path d="M2033 5342 c17 -7 17 -9 3 -21 -9 -7 -16 -18 -16 -24 0 -6 6 -2 14 9
14 18 15 18 13 -3 -1 -13 -5 -23 -9 -23 -4 0 -8 -5 -8 -11 0 -9 4 -8 14 0 7 6
13 26 12 43 -1 25 -6 33 -21 35 -19 3 -19 2 -2 -5z"/>
<path d="M2666 5282 c-3 -5 1 -9 9 -9 8 0 15 4 15 9 0 4 -4 8 -9 8 -6 0 -12
-4 -15 -8z"/>
<path d="M3967 5269 c7 -7 15 -10 18 -7 3 3 -2 9 -12 12 -14 6 -15 5 -6 -5z"/>
<path d="M4070 5276 c0 -2 7 -7 16 -10 8 -3 12 -2 9 4 -6 10 -25 14 -25 6z"/>
<path d="M2675 5243 c2 -10 4 -22 4 -28 1 -5 5 -4 10 4 10 15 4 41 -9 41 -5 0
-7 -8 -5 -17z"/>
<path d="M3810 5235 c0 -8 2 -15 4 -15 2 0 6 7 10 15 3 8 1 15 -4 15 -6 0 -10
-7 -10 -15z"/>
<path d="M4273 5243 c9 -2 17 -8 17 -13 0 -14 34 -4 38 11 2 10 1 11 -5 2 -6
-8 -14 -9 -23 -3 -8 6 -22 9 -30 9 -11 -1 -10 -3 3 -6z"/>
<path d="M4435 5240 c-4 -6 -12 -7 -18 -4 -7 4 -9 4 -5 -1 4 -4 4 -13 -2 -19
-6 -8 -3 -12 10 -12 10 0 16 4 13 9 -2 4 1 14 7 22 7 8 10 15 7 15 -3 0 -9 -5
-12 -10z"/>
<path d="M4490 5230 c0 -5 5 -10 11 -10 5 0 7 5 4 10 -3 6 -8 10 -11 10 -2 0
-4 -4 -4 -10z"/>
<path d="M2055 5200 c-4 -6 -14 -9 -22 -6 -8 3 -11 1 -8 -4 3 -6 12 -10 20
-10 15 0 30 18 22 26 -3 3 -8 0 -12 -6z"/>
<path d="M4526 5193 c2 -7 -1 -13 -5 -13 -5 0 -12 6 -14 13 -4 9 -6 9 -6 0 -1
-7 9 -18 22 -24 12 -6 19 -8 15 -4 -4 5 -2 15 5 23 8 11 8 14 0 9 -6 -4 -13
-4 -16 0 -2 5 -2 2 -1 -4z"/>
<path d="M4631 5156 c-13 -15 -6 -23 18 -22 8 1 16 8 18 16 4 13 3 13 -6 0
-10 -13 -15 -8 -12 13 2 11 -5 8 -18 -7z"/>
<path d="M4565 5150 c3 -5 10 -10 16 -10 5 0 9 5 9 10 0 6 -7 10 -16 10 -8 0
-12 -4 -9 -10z"/>
<path d="M4683 5145 c0 -8 4 -12 9 -9 5 3 6 10 3 15 -9 13 -12 11 -12 -6z"/>
<path d="M2049 5143 c-1 -5 -1 -11 0 -15 0 -5 -3 -8 -9 -8 -5 0 -10 -5 -10
-12 0 -9 3 -9 12 0 11 11 20 42 12 42 -2 0 -5 -3 -5 -7z"/>
<path d="M3264 5128 c-3 -4 5 -5 17 -3 30 6 36 14 9 12 -12 -1 -24 -5 -26 -9z"/>
<path d="M4816 5105 c4 -8 8 -15 10 -15 2 0 4 7 4 15 0 8 -4 15 -10 15 -5 0
-7 -7 -4 -15z"/>
<path d="M4835 5079 c-4 -6 -5 -12 -2 -15 2 -3 7 2 10 11 7 17 1 20 -8 4z"/>
<path d="M4910 5049 c0 -5 -4 -8 -9 -5 -5 4 -7 -3 -4 -14 3 -12 8 -18 11 -15
8 7 13 45 7 45 -3 0 -5 -5 -5 -11z"/>
<path d="M4970 5051 c0 -10 29 -36 34 -30 1 2 -6 12 -16 22 -10 9 -18 13 -18
8z"/>
<path d="M2690 5040 c-9 -6 -10 -10 -3 -10 6 0 15 5 18 10 8 12 4 12 -15 0z"/>
<path d="M2030 4949 c0 -5 5 -7 10 -4 6 3 10 8 10 11 0 2 -4 4 -10 4 -5 0 -10
-5 -10 -11z"/>
<path d="M2916 4948 c3 -5 10 -6 15 -3 13 9 11 12 -6 12 -8 0 -12 -4 -9 -9z"/>
<path d="M2697 4925 c-4 -8 -3 -16 1 -19 4 -3 9 4 9 15 2 23 -3 25 -10 4z"/>
<path d="M2873 4925 c0 -8 4 -12 9 -9 4 3 8 9 8 15 0 5 -4 9 -8 9 -5 0 -9 -7
-9 -15z"/>
<path d="M2835 4900 c-3 -6 1 -7 9 -4 18 7 21 14 7 14 -6 0 -13 -4 -16 -10z"/>
<path d="M2861 4891 c-8 -6 -9 -11 -3 -15 6 -3 14 -1 17 5 9 14 2 20 -14 10z"/>
<path d="M1435 4880 c-3 -6 1 -7 9 -4 18 7 21 14 7 14 -6 0 -13 -4 -16 -10z"/>
<path d="M2055 4880 c-4 -6 -14 -9 -22 -6 -8 3 -11 1 -8 -4 3 -6 12 -10 20
-10 15 0 30 18 22 26 -3 3 -8 0 -12 -6z"/>
<path d="M2716 4843 c-6 -14 -5 -15 5 -6 7 7 10 15 7 18 -3 3 -9 -2 -12 -12z"/>
<path d="M2773 4848 c1 -7 -3 -12 -9 -11 -6 1 -11 -4 -11 -11 0 -6 11 -12 24
-12 13 0 23 4 23 8 0 4 -4 8 -10 8 -5 0 -7 7 -4 15 4 8 1 15 -5 15 -6 0 -10
-6 -8 -12z"/>
<path d="M5243 4835 c-7 -8 -9 -16 -5 -19 4 -3 13 4 20 15 14 22 3 25 -15 4z"/>
<path d="M1252 4826 c4 -5 2 -18 -4 -30 -11 -20 -11 -20 -19 -1 -7 19 -8 19
-8 1 -1 -14 -4 -16 -14 -7 -10 8 -14 7 -14 -4 0 -8 4 -12 8 -9 4 2 11 -1 14
-6 5 -8 13 -6 24 4 10 9 20 14 23 11 6 -7 31 22 34 39 1 7 -4 13 -12 13 -9 0
-11 -4 -4 -12 16 -19 -1 -26 -19 -7 -9 10 -13 13 -9 8z"/>
<path d="M2049 4823 c-1 -5 -1 -11 0 -15 0 -5 -3 -8 -9 -8 -5 0 -10 -5 -10
-12 0 -9 3 -9 12 0 11 11 20 42 12 42 -2 0 -5 -3 -5 -7z"/>
<path d="M1542 4751 c-10 -6 -10 -10 2 -21 9 -7 14 -16 11 -20 -3 -4 1 -10 9
-13 10 -4 12 0 9 14 -3 10 -9 19 -14 19 -5 0 -9 5 -9 11 0 6 7 8 16 5 8 -3 12
-2 9 4 -7 12 -16 12 -33 1z"/>
<path d="M1026 4692 c-2 -4 -1 -14 5 -22 6 -11 9 -12 9 -2 0 8 5 10 13 6 8 -5
8 -2 -2 9 -15 19 -18 20 -25 9z"/>
<path d="M971 4658 c-7 -11 -8 -17 -2 -13 6 3 11 1 11 -4 0 -6 4 -11 9 -11 6
0 8 10 6 21 -6 30 -9 31 -24 7z"/>
<path d="M1610 4666 c0 -8 4 -17 9 -20 5 -4 7 3 4 14 -6 23 -13 26 -13 6z"/>
<path d="M2033 4624 c18 -6 18 -6 0 -27 -18 -21 -18 -21 1 -7 18 14 19 13 13
-3 -4 -11 -3 -16 3 -12 17 10 4 50 -16 52 -17 2 -17 1 -1 -3z"/>
<path d="M5550 4581 c0 -6 4 -13 10 -16 6 -3 7 1 4 9 -7 18 -14 21 -14 7z"/>
<path d="M2027 4555 c3 -8 9 -12 14 -9 12 7 11 11 -5 17 -10 4 -13 1 -9 -8z"/>
<path d="M5590 4556 c0 -2 7 -7 16 -10 8 -3 12 -2 9 4 -6 10 -25 14 -25 6z"/>
<path d="M1721 4466 c-9 -11 -9 -16 1 -22 7 -4 10 -4 6 1 -4 4 -3 14 3 22 6 7
9 13 6 13 -2 0 -10 -6 -16 -14z"/>
<path d="M5670 4449 c0 -5 5 -7 10 -4 6 3 10 8 10 11 0 2 -4 4 -10 4 -5 0 -10
-5 -10 -11z"/>
<path d="M2035 4433 c3 -3 0 -11 -5 -18 -7 -8 -5 -12 4 -12 14 0 16 22 3 32
-4 3 -5 2 -2 -2z"/>
<path d="M5674 4395 c13 -10 15 -15 6 -15 -7 0 -11 -3 -7 -6 3 -3 13 -2 23 4
17 10 13 14 -21 25 -20 7 -20 7 -1 -8z"/>
<path d="M1730 4389 c0 -5 5 -7 10 -4 6 3 10 8 10 11 0 2 -4 4 -10 4 -5 0 -10
-5 -10 -11z"/>
<path d="M2033 4384 c14 -4 15 -9 7 -19 -8 -10 -8 -15 0 -20 8 -5 8 -11 -1
-21 -13 -16 -6 -30 9 -20 5 3 9 22 8 43 -1 30 -5 38 -21 40 -17 1 -17 1 -2 -3z"/>
<path d="M1770 4366 c0 -2 8 -10 18 -17 15 -13 16 -12 3 4 -13 16 -21 21 -21
13z"/>
<path d="M1770 4319 c0 -5 5 -7 10 -4 6 3 10 8 10 11 0 2 -4 4 -10 4 -5 0 -10
-5 -10 -11z"/>
<path d="M5763 4308 c-12 -20 -12 -38 -1 -38 6 0 8 6 5 14 -3 7 0 19 6 25 6 6
8 11 5 11 -4 0 -10 -6 -15 -12z"/>
<path d="M1812 4286 c2 -10 -3 -21 -11 -24 -8 -3 -11 0 -7 7 4 6 1 11 -8 11
-8 0 -18 -5 -21 -10 -4 -6 -2 -9 4 -8 5 2 16 -4 23 -12 7 -8 12 -13 10 -11 -1
2 4 12 12 20 11 12 12 21 5 31 -8 12 -9 12 -7 -4z"/>
<path d="M1030 4270 c0 -5 5 -10 11 -10 5 0 7 5 4 10 -3 6 -8 10 -11 10 -2 0
-4 -4 -4 -10z"/>
<path d="M2030 4260 c0 -5 5 -10 11 -10 5 0 7 5 4 10 -3 6 -8 10 -11 10 -2 0
-4 -4 -4 -10z"/>
<path d="M1826 4252 c-3 -5 1 -9 9 -9 8 0 12 4 9 9 -3 4 -7 8 -9 8 -2 0 -6 -4
-9 -8z"/>
<path d="M2024 4199 c0 -10 6 -21 12 -23 8 -3 10 3 6 16 -4 16 -2 19 9 13 8
-5 10 -4 6 0 -14 16 -33 13 -33 -6z"/>
<path d="M5863 4080 c-2 -18 24 -36 35 -25 3 3 0 5 -7 5 -7 0 -10 4 -7 9 3 5
0 14 -7 19 -10 8 -13 6 -14 -8z"/>
<path d="M2015 4081 c-3 -5 -2 -12 3 -15 5 -3 9 1 9 9 0 17 -3 19 -12 6z"/>
<path d="M1935 4030 c-3 -5 -1 -10 4 -10 6 0 11 5 11 10 0 6 -2 10 -4 10 -3 0
-8 -4 -11 -10z"/>
<path d="M5910 4026 c0 -8 4 -17 9 -20 5 -4 7 3 4 14 -6 23 -13 26 -13 6z"/>
<path d="M5955 3999 c-4 -6 -5 -12 -2 -15 2 -3 7 2 10 11 7 17 1 20 -8 4z"/>
<path d="M1230 3982 c0 -11 4 -23 8 -26 10 -6 9 30 -1 40 -4 4 -7 -2 -7 -14z"/>
<path d="M1941 3946 c-9 -11 -9 -16 0 -22 7 -4 9 -3 5 4 -3 6 2 15 11 21 10 6
13 11 7 11 -6 0 -17 -6 -23 -14z"/>
<path d="M5936 3942 c-3 -4 4 -9 15 -9 23 -2 25 3 4 10 -8 4 -16 3 -19 -1z"/>
<path d="M1986 3913 c2 -6 -2 -14 -9 -16 -8 -3 -7 -10 6 -23 15 -16 19 -17 27
-4 5 9 5 19 0 26 -6 6 -6 15 -2 19 4 5 2 5 -5 2 -6 -4 -13 -4 -16 0 -2 5 -2 3
-1 -4z m18 -34 c-3 -5 -10 -7 -15 -3 -5 3 -7 10 -3 15 3 5 10 7 15 3 5 -3 7
-10 3 -15z"/>
<path d="M5963 3883 c4 -6 2 -13 -5 -15 -8 -3 -6 -6 4 -10 17 -7 19 15 3 29
-4 4 -5 3 -2 -4z"/>
<path d="M5955 3830 c3 -5 8 -10 11 -10 2 0 4 5 4 10 0 6 -5 10 -11 10 -5 0
-7 -4 -4 -10z"/>
<path d="M6035 3770 c-3 -5 -1 -10 4 -10 6 0 11 5 11 10 0 6 -2 10 -4 10 -3 0
-8 -4 -11 -10z"/>
<path d="M1355 3650 c-3 -5 -1 -10 4 -10 6 0 11 5 11 10 0 6 -2 10 -4 10 -3 0
-8 -4 -11 -10z"/>
<path d="M6060 3556 c0 -2 7 -7 16 -10 8 -3 12 -2 9 4 -6 10 -25 14 -25 6z"/>
<path d="M6064 3505 c1 -7 7 -19 14 -27 6 -8 8 -19 4 -24 -4 -4 1 -2 11 5 17
13 24 27 10 18 -5 -3 -13 1 -20 8 -9 10 -10 14 -1 17 8 3 6 7 -4 10 -10 4 -15
2 -14 -7z"/>
<path d="M1473 3453 c4 -3 1 -13 -6 -22 -11 -14 -10 -14 5 -2 16 12 16 31 1
31 -4 0 -3 -3 0 -7z"/>
<path d="M1525 3411 c-3 -5 -2 -12 3 -15 5 -3 9 1 9 9 0 17 -3 19 -12 6z"/>
<path d="M6125 3410 c-3 -5 -1 -10 4 -10 6 0 11 5 11 10 0 6 -2 10 -4 10 -3 0
-8 -4 -11 -10z"/>
<path d="M1510 3350 c0 -5 9 -8 20 -7 21 1 18 10 -5 13 -8 1 -15 -2 -15 -6z"/>
<path d="M6141 3316 c-8 -9 -8 -16 -2 -20 5 -4 12 -2 16 4 3 5 3 10 -2 10 -4
0 -1 5 7 10 8 5 10 10 4 10 -6 0 -17 -6 -23 -14z"/>
<path d="M6144 3242 c1 -23 10 -49 24 -67 l22 -30 -11 28 c-7 15 -15 27 -18
27 -4 0 -7 9 -8 20 -1 13 2 18 10 14 9 -5 9 -4 0 6 -6 7 -9 19 -6 26 3 8 1 14
-4 14 -5 0 -9 -17 -9 -38z"/>
<path d="M6173 3265 c0 -8 4 -12 9 -9 5 3 6 10 3 15 -9 13 -12 11 -12 -6z"/>
<path d="M657 3254 c-3 -4 -2 -15 4 -26 10 -19 12 -19 30 -2 14 12 19 13 19 4
0 -7 3 -11 6 -7 3 3 2 13 -4 22 -8 16 -10 16 -15 1 -4 -9 -13 -13 -22 -10 -8
3 -12 10 -9 15 6 10 0 12 -9 3z"/>
<path d="M1605 3250 c-3 -5 1 -10 10 -10 9 0 13 5 10 10 -3 6 -8 10 -10 10 -2
0 -7 -4 -10 -10z"/>
<path d="M630 3230 c0 -5 5 -10 11 -10 5 0 7 5 4 10 -3 6 -8 10 -11 10 -2 0
-4 -4 -4 -10z"/>
<path d="M762 3226 c7 -8 15 -12 17 -11 5 6 -10 25 -20 25 -5 0 -4 -6 3 -14z"/>
<path d="M1580 3236 c0 -2 8 -10 18 -17 15 -13 16 -12 3 4 -13 16 -21 21 -21
13z"/>
<path d="M795 3211 c-3 -5 -2 -12 3 -15 5 -3 9 1 9 9 0 17 -3 19 -12 6z"/>
<path d="M950 3166 c0 -2 8 -10 18 -17 15 -13 16 -12 3 4 -13 16 -21 21 -21
13z"/>
<path d="M892 3135 c6 -14 13 -23 16 -21 7 7 -9 46 -18 46 -5 0 -4 -11 2 -25z"/>
<path d="M547 3099 c7 -7 15 -10 18 -7 3 3 -2 9 -12 12 -14 6 -15 5 -6 -5z"/>
<path d="M1076 3052 c-3 -5 1 -9 9 -9 8 0 15 4 15 9 0 4 -4 8 -9 8 -6 0 -12
-4 -15 -8z"/>
<path d="M6213 3036 c0 -15 22 -15 34 0 4 5 4 6 -1 2 -5 -4 -14 -3 -21 2 -8 7
-12 5 -12 -4z"/>
<path d="M1177 3029 c7 -7 15 -10 18 -7 3 3 -2 9 -12 12 -14 6 -15 5 -6 -5z"/>
<path d="M6184 2988 c-12 -14 -13 -18 -3 -10 9 6 18 10 21 7 2 -3 5 2 5 10 0
19 0 19 -23 -7z"/>
<path d="M6228 3003 c7 -3 16 -2 19 1 4 3 -2 6 -13 5 -11 0 -14 -3 -6 -6z"/>
<path d="M481 2971 c-9 -6 -10 -10 -2 -12 7 -3 9 -12 6 -22 -4 -9 -12 -14 -18
-10 -6 4 -7 1 -2 -7 6 -10 12 -7 26 11 10 13 14 26 8 27 -5 2 -7 8 -3 13 7 11
3 11 -15 0z"/>
<path d="M6228 2973 c7 -3 16 -2 19 1 4 3 -2 6 -13 5 -11 0 -14 -3 -6 -6z"/>
<path d="M6197 2940 c-8 -11 -16 -18 -18 -16 -2 2 -4 -11 -4 -29 0 -23 6 -37
20 -46 17 -10 18 -10 9 2 -16 21 -15 61 2 86 18 28 10 31 -9 3z"/>
<path d="M1733 2935 c0 -8 4 -12 9 -9 5 3 6 10 3 15 -9 13 -12 11 -12 -6z"/>
<path d="M6210 2920 c-6 -11 -8 -20 -6 -20 3 0 10 9 16 20 6 11 8 20 6 20 -3
0 -10 -9 -16 -20z"/>
<path d="M6216 2893 c-10 -10 -7 -33 4 -33 5 0 7 7 4 15 -5 11 -2 13 10 9 9
-3 16 -4 16 -1 0 8 -28 16 -34 10z"/>
<path d="M1380 2886 c0 -2 7 -9 15 -16 9 -7 15 -8 15 -2 0 5 -7 12 -15 16 -8
3 -15 4 -15 2z"/>
<path d="M6230 2850 c-9 -6 -10 -10 -3 -10 6 0 15 5 18 10 8 12 4 12 -15 0z"/>
<path d="M1556 2823 c-6 -14 -5 -15 5 -6 7 7 10 15 7 18 -3 3 -9 -2 -12 -12z"/>
<path d="M1820 2810 c0 -5 7 -7 15 -4 8 4 15 8 15 10 0 2 -7 4 -15 4 -8 0 -15
-4 -15 -10z"/>
<path d="M6224 2784 c-18 -14 -18 -15 4 -4 12 6 22 13 22 15 0 8 -5 6 -26 -11z"/>
<path d="M1710 2741 c0 -5 5 -13 10 -16 6 -3 10 -2 10 4 0 5 -4 13 -10 16 -5
3 -10 2 -10 -4z"/>
<path d="M1815 2741 c-3 -5 5 -17 17 -25 14 -10 17 -16 8 -16 -7 0 -24 10 -38
23 -13 12 -23 18 -22 12 5 -23 -1 -36 -12 -29 -9 5 -9 3 1 -9 7 -9 17 -14 23
-11 5 3 20 -2 33 -10 15 -10 25 -12 25 -6 0 6 4 9 8 6 13 -8 35 11 28 23 -4 6
-12 9 -17 6 -5 -4 -9 -2 -9 3 0 5 -9 12 -21 15 -12 3 -18 10 -14 16 3 6 4 11
1 11 -3 0 -7 -4 -11 -9z m-7 -34 c8 -10 6 -13 -7 -13 -11 0 -17 6 -14 13 3 7
6 13 8 13 1 0 7 -6 13 -13z m67 -16 c-3 -2 -16 -6 -28 -8 -15 -2 -18 0 -9 5
14 9 45 12 37 3z"/>
<path d="M430 2635 c0 -8 4 -15 10 -15 5 0 7 7 4 15 -4 8 -8 15 -10 15 -2 0
-4 -7 -4 -15z"/>
<path d="M530 2570 c0 -5 5 -10 11 -10 5 0 7 5 4 10 -3 6 -8 10 -11 10 -2 0
-4 -4 -4 -10z"/>
<path d="M665 2541 c-3 -5 0 -13 6 -16 5 -4 8 -14 4 -22 -5 -13 -3 -14 10 -3
15 12 15 14 0 22 -8 5 -13 13 -10 19 4 5 4 9 1 9 -3 0 -7 -4 -11 -9z"/>
<path d="M6149 2518 c-6 -22 -5 -39 3 -45 6 -3 8 -1 4 5 -3 6 2 13 11 15 17 4
17 5 0 6 -10 0 -15 6 -12 11 3 6 4 10 1 10 -3 0 -6 -1 -7 -2z"/>
<path d="M710 2496 c0 -2 7 -7 16 -10 8 -3 12 -2 9 4 -6 10 -25 14 -25 6z"/>
<path d="M6146 2451 c-3 -5 0 -14 7 -19 10 -8 13 -6 14 9 2 19 -11 26 -21 10z"/>
<path d="M815 2430 c3 -5 8 -10 11 -10 2 0 4 5 4 10 0 6 -5 10 -11 10 -5 0 -7
-4 -4 -10z"/>
<path d="M906 2424 c-9 -24 -7 -31 4 -14 8 12 12 12 18 2 5 -8 16 -10 28 -6
18 7 18 6 -1 -12 -12 -10 -16 -16 -10 -12 7 4 15 5 18 1 4 -3 7 -1 7 5 0 20
-4 27 -16 27 -6 0 -18 6 -26 13 -13 10 -17 10 -22 -4z"/>
<path d="M6147 2383 c-13 -12 -7 -23 11 -22 10 0 12 3 4 6 -6 2 -10 9 -6 14 6
10 0 12 -9 2z"/>
<path d="M1300 2228 c0 -4 7 -8 15 -8 8 0 15 4 15 8 0 5 -7 9 -15 9 -8 0 -15
-4 -15 -9z"/>
<path d="M1356 2168 c3 -5 10 -6 15 -3 13 9 11 12 -6 12 -8 0 -12 -4 -9 -9z"/>
<path d="M1476 2138 c3 -5 10 -6 15 -3 13 9 11 12 -6 12 -8 0 -12 -4 -9 -9z"/>
<path d="M1495 2121 c-3 -5 -2 -12 3 -15 5 -3 9 1 9 9 0 17 -3 19 -12 6z"/>
<path d="M1570 2069 c0 -5 5 -7 10 -4 6 3 10 8 10 11 0 2 -4 4 -10 4 -5 0 -10
-5 -10 -11z"/>
<path d="M1710 2038 c0 -19 2 -20 10 -8 13 19 13 30 0 30 -5 0 -10 -10 -10
-22z"/>
<path d="M1819 1973 c-12 -14 -12 -16 0 -8 11 6 13 4 8 -9 -4 -11 -3 -15 4
-11 6 4 8 13 5 20 -3 8 0 16 7 19 8 3 8 5 1 5 -6 1 -18 -7 -25 -16z"/>
<path d="M1891 1953 c-1 -17 16 -25 25 -12 4 7 3 9 -4 5 -5 -3 -13 0 -15 6 -4
9 -6 10 -6 1z"/>
<path d="M5944 1929 c-2 -4 5 -9 16 -12 11 -3 18 -1 15 3 -3 5 1 10 7 13 7 3
3 4 -10 4 -13 -1 -25 -4 -28 -8z"/>
<path d="M1996 1894 c-19 -14 -19 -14 48 -5 12 1 -1 14 -17 17 -7 1 -21 -4
-31 -12z"/>
<path d="M2035 1869 c-4 -6 -5 -12 -2 -15 2 -3 7 2 10 11 7 17 1 20 -8 4z"/>
<path d="M2155 1839 c-4 -5 -10 -7 -14 -5 -4 3 -13 0 -21 -6 -12 -8 -12 -9 2
-4 10 3 20 1 23 -4 3 -5 15 -7 26 -5 16 3 19 0 14 -13 -4 -12 -3 -14 5 -6 6 6
8 18 5 27 -8 19 -32 29 -40 16z m19 -7 c3 -5 -1 -9 -9 -9 -8 0 -12 4 -9 9 3 4
7 8 9 8 2 0 6 -4 9 -8z"/>
<path d="M5925 1840 c-3 -5 -3 -10 1 -10 4 0 -3 -11 -16 -25 -13 -14 -18 -25
-11 -25 7 0 10 -4 7 -8 -2 -4 4 -8 15 -8 18 0 18 2 5 12 -19 13 -21 28 -3 21
7 -3 13 6 14 24 2 30 -1 36 -12 19z"/>
<path d="M5955 1819 c-4 -6 -5 -12 -2 -15 2 -3 7 2 10 11 7 17 1 20 -8 4z"/>
<path d="M2300 1730 c-8 -5 -10 -10 -5 -10 6 0 17 5 25 10 8 5 11 10 5 10 -5
0 -17 -5 -25 -10z"/>
<path d="M5823 1685 c0 -9 4 -14 9 -13 5 2 10 8 10 13 0 5 -5 11 -10 13 -5 1
-9 -4 -9 -13z"/>
<path d="M2454 1520 c0 -13 4 -16 10 -10 7 7 7 13 0 20 -6 6 -10 3 -10 -10z"/>
<path d="M2491 1513 c1 -18 3 -21 6 -10 3 10 9 14 16 10 7 -4 6 1 -2 10 -18
23 -21 22 -20 -10z"/>
<path d="M5755 1529 c-4 -6 -5 -12 -2 -15 2 -3 7 2 10 11 7 17 1 20 -8 4z"/>
<path d="M5700 1515 c-6 -7 -3 -11 10 -12 10 -1 21 4 23 11 6 16 -20 17 -33 1z"/>
<path d="M2530 1480 c11 -11 23 -20 27 -20 3 0 -2 9 -12 20 -10 11 -22 20 -27
20 -4 0 1 -9 12 -20z"/>
<path d="M2496 1468 c3 -5 10 -6 15 -3 13 9 11 12 -6 12 -8 0 -12 -4 -9 -9z"/>
<path d="M5670 1451 c0 -6 4 -13 10 -16 6 -3 7 1 4 9 -7 18 -14 21 -14 7z"/>
<path d="M2540 1441 c0 -6 4 -13 10 -16 6 -3 7 1 4 9 -7 18 -14 21 -14 7z"/>
<path d="M5588 1378 c5 -5 16 -8 23 -6 8 3 3 7 -10 11 -17 4 -21 3 -13 -5z"/>
<path d="M5570 1329 c0 -5 5 -7 10 -4 6 3 10 8 10 11 0 2 -4 4 -10 4 -5 0 -10
-5 -10 -11z"/>
<path d="M2734 1258 c-4 -5 -3 -12 0 -15 3 -4 6 0 6 8 0 11 2 12 9 1 7 -11 9
-11 14 0 6 16 -20 21 -29 6z"/>
<path d="M5391 1216 c-15 -15 -19 -26 -12 -30 6 -4 11 0 11 11 1 17 2 16 16
-2 16 -20 16 -19 9 4 -5 16 -4 21 4 17 7 -5 9 -1 5 8 -3 9 -7 16 -8 15 0 0
-12 -11 -25 -23z"/>
<path d="M5455 1229 c-3 -4 2 -6 10 -5 21 3 28 13 10 13 -9 0 -18 -4 -20 -8z"/>
<path d="M2950 1089 c0 -5 5 -7 10 -4 6 3 13 -1 16 -9 3 -9 11 -16 17 -16 5 0
2 9 -8 20 -20 22 -35 26 -35 9z"/>
<path d="M2995 1041 c-3 -5 -2 -12 3 -15 5 -3 9 1 9 9 0 17 -3 19 -12 6z"/>
<path d="M5137 1019 c7 -7 15 -10 18 -7 3 3 -2 9 -12 12 -14 6 -15 5 -6 -5z"/>
<path d="M3046 1012 c-3 -5 1 -9 9 -9 8 0 12 4 9 9 -3 4 -7 8 -9 8 -2 0 -6 -4
-9 -8z"/>
<path d="M4984 959 c-7 -11 12 -29 31 -29 6 1 2 5 -8 11 -9 6 -15 14 -12 20 4
5 4 9 1 9 -3 0 -8 -5 -12 -11z"/>
<path d="M5055 951 c-3 -5 -2 -12 3 -15 5 -3 9 1 9 9 0 17 -3 19 -12 6z"/>
<path d="M3300 870 c-9 -6 -10 -10 -3 -10 6 0 15 5 18 10 8 12 4 12 -15 0z"/>
<path d="M3463 862 c-9 -6 -8 -12 6 -24 17 -15 20 -15 25 -1 11 27 -7 41 -31
25z m27 -12 c0 -5 -2 -10 -4 -10 -3 0 -8 5 -11 10 -3 6 -1 10 4 10 6 0 11 -4
11 -10z"/>
<path d="M3520 845 c-7 -9 -10 -18 -6 -22 3 -3 6 0 6 8 0 12 2 11 10 -1 7 -11
12 -12 20 -4 8 8 7 14 -3 23 -11 9 -17 8 -27 -4z"/>
<path d="M3555 800 c3 -5 8 -10 11 -10 2 0 4 5 4 10 0 6 -5 10 -11 10 -5 0 -7
-4 -4 -10z"/>
<path d="M3627 796 c-3 -8 -14 -13 -24 -12 -10 2 -12 1 -5 -1 7 -3 9 -10 5
-16 -4 -8 -1 -7 9 1 9 7 18 9 20 5 3 -4 3 -3 2 4 -2 7 1 15 6 18 6 4 10 -4 10
-17 0 -18 2 -20 10 -8 5 9 5 19 -2 27 -14 17 -25 16 -31 -1z"/>
<path d="M3530 791 c0 -6 4 -13 10 -16 6 -3 7 1 4 9 -7 18 -14 21 -14 7z"/>
<path d="M4616 771 c-4 -5 3 -7 14 -4 23 6 26 13 6 13 -8 0 -17 -4 -20 -9z"/>
</g>
</svg>
